<svg xmlns="http://www.w3.org/2000/svg" width="65" height="65" viewBox="0 0 65 65" fill="none">
  <g clip-path="url(#clip0_14_2588)">
    <path d="M43.2725 24.6157H60.0274C60.7563 24.6157 61.4576 24.3077 61.9512 23.7704C62.4452 23.2327 62.6933 22.5073 62.6316 21.7799C62.3987 19.0305 61.1542 16.4818 59.127 14.6034C58.5157 14.037 57.8494 13.5469 57.1411 13.138C58.5086 11.7431 59.3534 9.83117 59.3534 7.72503C59.3534 3.4655 55.8976 0 51.65 0C47.4021 0 43.9463 3.4655 43.9463 7.72515C43.9463 9.83129 44.7911 11.7433 46.1588 13.1382C45.4506 13.547 44.7842 14.0371 44.173 14.6035C42.1457 16.4818 40.9012 19.0306 40.6684 21.7801C40.6068 22.5073 40.8548 23.2329 41.3488 23.7705C41.8425 24.3077 42.5436 24.6157 43.2725 24.6157ZM47.7262 7.72515C47.7262 5.54972 49.4864 3.77986 51.65 3.77986C53.8134 3.77986 55.5736 5.54972 55.5736 7.72515C55.5736 9.90072 53.8134 11.6704 51.65 11.6704C49.4864 11.6704 47.7262 9.90059 47.7262 7.72515ZM46.7421 17.376C48.0823 16.1342 49.8253 15.4503 51.65 15.4503C53.4746 15.4503 55.2175 16.1342 56.5577 17.376C57.5754 18.3188 58.2934 19.5178 58.6451 20.8359H44.6548C45.0065 19.5178 45.7245 18.319 46.7421 17.376Z" fill="#424242"/>
    <path d="M12.0733 24.6157H28.828C29.5569 24.6157 30.2582 24.3077 30.7519 23.7704C31.2459 23.2327 31.494 22.5073 31.4322 21.7799C31.1994 19.0305 29.9548 16.4818 27.9277 14.6034C27.3165 14.037 26.6501 13.5469 25.9419 13.138C27.3095 11.743 28.1543 9.83117 28.1543 7.72503C28.1543 3.4655 24.6985 0 20.4507 0C16.2029 0 12.7471 3.4655 12.7471 7.72515C12.7471 9.83129 13.5919 11.7433 14.9596 13.1382C14.2514 13.547 13.585 14.0371 12.9738 14.6035C10.9465 16.482 9.70193 19.0306 9.46922 21.7801C9.40761 22.5073 9.65557 23.2328 10.1496 23.7705C10.6432 24.3077 11.3444 24.6157 12.0733 24.6157ZM16.527 7.72515C16.527 5.54972 18.2871 3.77986 20.4507 3.77986C22.6143 3.77986 24.3745 5.54972 24.3745 7.72515C24.3745 9.90072 22.6143 11.6704 20.4507 11.6704C18.2871 11.6704 16.527 9.90059 16.527 7.72515ZM15.543 17.376C16.8832 16.1342 18.6261 15.4503 20.4507 15.4503C22.2754 15.4503 24.0183 16.1342 25.3585 17.376C26.3762 18.3188 27.0942 19.5178 27.4459 20.8359H13.4555C13.8071 19.5178 14.5252 18.319 15.543 17.376Z" fill="#424242"/>
    <path d="M59.127 46.0586C58.5157 45.4922 57.8494 45.0021 57.1411 44.5932C58.5086 43.1983 59.3534 41.2864 59.3534 39.1803C59.3534 34.9206 55.8976 31.4552 51.6499 31.4552C47.4021 31.4552 43.9463 34.9207 43.9463 39.1803C43.9463 41.2864 44.7911 43.1983 46.1588 44.5932C45.4506 45.0021 44.7842 45.4922 44.173 46.0586C42.1457 47.9369 40.9012 50.4857 40.6684 53.2351C40.6068 53.9625 40.8548 54.6881 41.3488 55.2257C41.8425 55.763 42.5435 56.071 43.2725 56.071H60.0274C60.7563 56.071 61.4574 55.763 61.9512 55.2257C62.4452 54.6881 62.6933 53.9626 62.6316 53.2351C62.3989 50.4855 61.1543 47.937 59.127 46.0586ZM47.7263 39.1803C47.7263 37.0048 49.4865 35.2351 51.6501 35.2351C53.8135 35.2351 55.5737 37.0049 55.5737 39.1803C55.5737 41.3558 53.8135 43.1256 51.6501 43.1256C49.4865 43.1255 47.7263 41.3557 47.7263 39.1803ZM44.6549 52.291C45.0066 50.973 45.7246 49.7739 46.7422 48.8311C48.0824 47.5893 49.8254 46.9054 51.6501 46.9054C53.4747 46.9054 55.2176 47.5893 56.5578 48.8311C57.5755 49.7739 58.2936 50.973 58.6452 52.291H44.6549Z" fill="#424242"/>
    <path d="M20.4511 28.4092C11.295 28.4092 3.84601 35.8589 3.84601 45.0159C3.84601 49.2216 5.41742 53.0672 8.00398 55.9964L2.71747 61.2835C1.97951 62.0216 1.97964 63.2183 2.71759 63.9564C3.08663 64.3252 3.5702 64.5096 4.0539 64.5096C4.53759 64.5096 5.02142 64.3251 5.39033 63.956L10.8137 58.532C13.5329 60.4768 16.8607 61.6223 20.4511 61.6223C29.6071 61.6223 37.0561 54.1726 37.0561 45.0156C37.0561 35.8587 29.6071 28.4092 20.4511 28.4092ZM20.4511 57.8426C13.3792 57.8426 7.62587 52.0885 7.62587 45.0158C7.62587 37.943 13.3792 32.1889 20.4511 32.1889C27.5229 32.1889 33.2763 37.943 33.2763 45.0158C33.2763 52.0885 27.5229 57.8426 20.4511 57.8426Z" fill="#0968A8"/>
    <path d="M25.7215 39.9008L18.1958 47.4273L15.1776 44.4087C14.4395 43.6707 13.2429 43.6708 12.5047 44.4085C11.7667 45.1465 11.7666 46.3432 12.5046 47.0814L16.8594 51.4366C17.2285 51.8056 17.7122 51.9902 18.1958 51.9902C18.6794 51.9902 19.1632 51.8056 19.5321 51.4367L19.5322 51.4366L28.3944 42.5734C29.1323 41.8353 29.1322 40.6386 28.3942 39.9006C27.656 39.1626 26.4594 39.1627 25.7215 39.9008Z" fill="#0968A8"/>
  </g>
  <defs>
    <clipPath id="clip0_14_2588">
      <rect width="64.5096" height="64.5096" fill="white" transform="translate(0.146484)"/>
    </clipPath>
  </defs>
</svg>