<svg xmlns="http://www.w3.org/2000/svg" width="57" height="70" viewBox="0 0 57 70" fill="none">
  <path d="M54.472 18.5096V50.7644C54.472 63.6663 51.2465 66.8918 38.3446 66.8918H18.9917C6.08974 66.8918 2.86426 63.6663 2.86426 50.7644V18.5096C2.86426 5.60768 6.08974 2.3822 18.9917 2.3822H38.3446C51.2465 2.3822 54.472 5.60768 54.472 18.5096Z" stroke="#292D32" stroke-width="4.30064" stroke-linecap="round" stroke-linejoin="round"/>
  <path d="M35.1187 13.6714H22.2168" stroke="#0968A8" stroke-width="4.30064" stroke-linecap="round" stroke-linejoin="round"/>
  <path d="M28.6675 57.5379C31.4286 57.5379 33.6671 55.2994 33.6671 52.5384C33.6671 49.7774 31.4286 47.5389 28.6675 47.5389C25.9063 47.5389 23.668 49.7774 23.668 52.5384C23.668 55.2994 25.9063 57.5379 28.6675 57.5379Z" stroke="#0968A8" stroke-width="4.30064" stroke-linecap="round" stroke-linejoin="round"/>
</svg>