<svg xmlns="http://www.w3.org/2000/svg" width="65" height="65" viewBox="0 0 65 65" fill="none">
  <g clip-path="url(#clip0_14_2582)">
    <path d="M62.9008 53.6962H59.0881V28.4795C59.0881 27.4353 58.2401 26.5887 57.1941 26.5887H46.7365C45.6905 26.5887 44.8425 27.4353 44.8425 28.4795V53.6962H39.6629V20.988C39.6629 19.9438 38.8149 19.0972 37.7688 19.0972H27.3112C26.2652 19.0972 25.4172 19.9438 25.4172 20.988V53.6962H20.2376V26.4785C20.2376 25.4342 19.3896 24.5876 18.3436 24.5876H7.88582C6.83979 24.5876 5.9918 25.4342 5.9918 26.4785V53.6962H2.17918C1.13315 53.6962 0.285156 54.5428 0.285156 55.587C0.285156 56.6313 1.13315 57.4779 2.17918 57.4779H62.9008C63.9468 57.4779 64.7948 56.6313 64.7948 55.587C64.7948 54.5428 63.9468 53.6962 62.9008 53.6962ZM9.77984 53.6962V28.3694H16.4496V53.6962H9.77984ZM29.2051 53.6962V22.8789H35.8748V53.6962H29.2051ZM48.6305 53.6962V30.3704H55.3002V53.6962H48.6305Z" fill="#424242"/>
    <path d="M63.4096 14.2275C63.4724 13.4373 63.0118 12.4669 61.957 12.2214L55.8476 10.7365C54.8325 10.489 53.8103 11.1124 53.5637 12.1272C53.317 13.1419 53.9396 14.1645 54.9544 14.4111L56.6824 14.8311L51.784 17.8538L33.2112 7.2801C32.6772 6.97592 32.0282 6.95033 31.4723 7.21165L13.0106 15.8771L4.1852 10.3693C3.29939 9.81601 2.13298 10.0863 1.57996 10.9722C1.02707 11.858 1.29709 13.0244 2.18303 13.5774L11.8814 19.6301C12.4256 19.9698 13.1051 20.0104 13.6859 19.7378L32.1919 11.0514L50.8875 21.6951C51.374 21.9502 52.052 22.0824 52.8161 21.6609L58.754 17.9965L58.3586 19.8486C57.9234 22.3121 61.4108 23.0117 62.0569 20.6385L63.3676 14.5002C63.3825 14.4142 63.388 14.4263 63.4096 14.2275Z" fill="#0968A8"/>
  </g>
  <defs>
    <clipPath id="clip0_14_2582">
      <rect width="64.5096" height="64.5096" fill="white" transform="translate(0.285156)"/>
    </clipPath>
  </defs>
</svg>