<svg xmlns="http://www.w3.org/2000/svg" width="66" height="65" viewBox="0 0 66 65" fill="none">
  <path d="M41.1994 34.007H45.3659M21.7554 34.007H17.5889M34.9495 19.4241L38.4216 17.3408M28.0053 19.4241L24.5331 17.3408M43.2826 42.3402L40.5049 41.2291M43.2826 25.6739L40.5049 26.785M19.6721 42.3402L22.4498 41.2291M19.6721 25.6739L22.4498 26.785M31.4774 44.4234V35.3959" stroke="#0968A8" stroke-width="3.22548" stroke-linecap="round"/>
  <path d="M41.2008 35.3959V31.1419C41.2004 29.6916 40.624 28.3008 39.5984 27.2754C38.5727 26.25 37.1818 25.674 35.7315 25.674H27.2275C26.5092 25.6738 25.7978 25.8151 25.1341 26.0899C24.4704 26.3647 23.8673 26.7675 23.3592 27.2754C22.8512 27.7833 22.4482 28.3863 22.1733 29.0499C21.8983 29.7136 21.7568 30.4249 21.7568 31.1432V35.3959C21.7568 36.6726 22.0083 37.9368 22.4969 39.1163C22.9855 40.2959 23.7016 41.3676 24.6043 42.2704C25.5071 43.1731 26.5788 43.8893 27.7584 44.3778C28.9379 44.8664 30.2021 45.1179 31.4788 45.1179C32.7555 45.1179 34.0197 44.8664 35.1992 44.3778C36.3788 43.8893 37.4505 43.1731 38.3533 42.2704C39.256 41.3676 39.9722 40.2959 40.4607 39.1163C40.9493 37.9368 41.2008 36.6726 41.2008 35.3959Z" stroke="#424242" stroke-width="3.22548"/>
  <path d="M37.7272 26.3684V24.9796C37.7272 23.322 37.0687 21.7323 35.8967 20.5603C34.7246 19.3882 33.1349 18.7297 31.4774 18.7297C29.8198 18.7297 28.2301 19.3882 27.0581 20.5603C25.886 21.7323 25.2275 23.322 25.2275 24.9796V26.3684" stroke="#424242" stroke-width="3.22548"/>
  <path d="M31.6776 61.8917C14.725 61.8917 0.922852 48.0896 0.922852 31.137C0.922852 14.1843 14.725 0.382202 31.6776 0.382202C32.9078 0.382202 33.928 1.40236 33.928 2.63255C33.928 3.86274 32.9078 4.8829 31.6776 4.8829C17.1854 4.8829 5.42355 16.6747 5.42355 31.137C5.42355 45.5992 17.1854 57.391 31.6776 57.391C46.1699 57.391 57.9317 45.5992 57.9317 31.137C57.9317 29.9068 58.9518 28.8866 60.182 28.8866C61.4122 28.8866 62.4324 29.9068 62.4324 31.137C62.4324 48.0896 48.6302 61.8917 31.6776 61.8917Z" fill="#424242"/>
  <path d="M63.1842 64.8918C62.6141 64.8918 62.044 64.6818 61.594 64.2317L55.593 58.2308C54.7229 57.3607 54.7229 55.9204 55.593 55.0503C56.4632 54.1802 57.9034 54.1802 58.7735 55.0503L64.7744 61.0512C65.6446 61.9214 65.6446 63.3616 64.7744 64.2317C64.3244 64.6818 63.7543 64.8918 63.1842 64.8918Z" fill="#424242"/>
</svg>