<svg xmlns="http://www.w3.org/2000/svg" width="66" height="69" viewBox="0 0 66 69" fill="none">
  <path d="M29.1297 66.5849H36.8996C39.8595 66.5849 41.7712 64.4883 41.2162 61.9292L39.952 56.3488H26.0773L24.8132 61.9292C24.2582 64.3341 26.3548 66.5849 29.1297 66.5849Z" stroke="#424242" stroke-width="4" stroke-linecap="round" stroke-linejoin="round"/>
  <path d="M33.0137 31.4972V39.2979" stroke="#0968A8" stroke-width="4" stroke-linecap="round" stroke-linejoin="round"/>
  <path d="M30.3639 13.2135L27.9589 10.8085C26.5098 9.35936 26.5098 7.01623 27.9589 5.56709L30.3639 3.16205C31.813 1.71291 34.1563 1.71291 35.6054 3.16205L38.0104 5.56709C39.4595 7.01623 39.4595 9.35936 38.0104 10.8085L35.6054 13.2135C34.1563 14.6627 31.813 14.6627 30.3639 13.2135Z" stroke="#424242" stroke-width="4" stroke-linecap="round" stroke-linejoin="round"/>
  <path d="M55.9538 27.458H59.3454C61.3804 27.458 63.0454 29.1231 63.0454 31.1581V34.5493C63.0454 36.5843 61.3804 38.2496 59.3454 38.2496H55.9538C53.9189 38.2496 52.2539 36.5843 52.2539 34.5493V31.1581C52.2539 29.1231 53.9189 27.458 55.9538 27.458Z" stroke="#424242" stroke-width="4" stroke-linecap="round" stroke-linejoin="round"/>
  <path d="M10.0134 27.458H6.6218C4.58684 27.458 2.92188 29.1231 2.92188 31.1581V34.5493C2.92188 36.5843 4.58684 38.2496 6.6218 38.2496H10.0134C12.0484 38.2496 13.7133 36.5843 13.7133 34.5493V31.1581C13.7133 29.1231 12.0484 27.458 10.0134 27.458Z" stroke="#424242" stroke-width="4" stroke-linecap="round" stroke-linejoin="round"/>
  <path d="M53.1499 28.3519L36.8086 12.0107" stroke="#424242" stroke-width="4" stroke-linecap="round" stroke-linejoin="round"/>
  <path d="M12.8193 28.3519L29.1607 12.0107" stroke="#424242" stroke-width="4" stroke-linecap="round" stroke-linejoin="round"/>
  <path d="M39.9533 56.3178L45.2874 51.5692C48.2781 48.9176 48.4015 47.0677 46.0273 44.0769L36.6234 32.1449C34.6501 29.6475 31.4126 29.6475 29.4393 32.1449L20.0354 44.0769C17.6612 47.0677 17.6612 49.0101 20.7753 51.5692L26.1094 56.3178" stroke="#424242" stroke-width="4" stroke-linecap="round" stroke-linejoin="round"/>
</svg>