<svg xmlns="http://www.w3.org/2000/svg" width="70" height="69" viewBox="0 0 70 69" fill="none">
  <path d="M25.6254 37.7644C23.4966 38.8288 21.7226 40.4093 20.4001 42.3768C19.6583 43.5058 19.6583 44.925 20.4001 46.0539C21.7226 48.0214 23.4966 49.6019 25.6254 50.6663" stroke="#0968A8" stroke-width="4.30064" stroke-linecap="round" stroke-linejoin="round"/>
  <path d="M45.6572 37.7644C47.786 38.8288 49.5601 40.4093 50.8825 42.3768C51.6244 43.5058 51.6244 44.925 50.8825 46.0539C49.5601 48.0214 47.786 49.6019 45.6572 50.6663" stroke="#0968A8" stroke-width="4.30064" stroke-linecap="round" stroke-linejoin="round"/>
  <path d="M25.6262 66.7937H44.9791C61.1065 66.7937 67.5575 60.3427 67.5575 44.2153V24.8624C67.5575 8.73502 61.1065 2.28406 44.9791 2.28406H25.6262C9.49881 2.28406 3.04785 8.73502 3.04785 24.8624V44.2153C3.04785 60.3427 9.49881 66.7937 25.6262 66.7937Z" stroke="#424242" stroke-width="4.30064" stroke-linecap="round" stroke-linejoin="round"/>
  <path d="M3.79004 21.6692L65.7838 21.637" stroke="#424242" stroke-width="4.30064" stroke-linecap="round" stroke-linejoin="round"/>
</svg>