<svg width="34" height="34" viewBox="0 0 34 34" fill="none" xmlns="http://www.w3.org/2000/svg">
<rect width="34" height="34" rx="4" fill="#0968A8"/>
<path d="M12.2328 10.0204C12.2328 11.2498 11.2383 12.2464 10.0114 12.2464C8.78459 12.2464 7.79004 11.2498 7.79004 10.0204C7.79004 8.79104 8.78459 7.79443 10.0114 7.79443C11.2383 7.79443 12.2328 8.79104 12.2328 10.0204Z" fill="#F8F8F8"/>
<path d="M8.09382 13.8826H11.8911V26.2111H8.09382V13.8826Z" fill="#F8F8F8"/>
<path d="M18.0046 13.8826H14.2074V26.2111H18.0046C18.0046 26.2111 18.0046 22.3299 18.0046 19.9032C18.0046 18.4467 18.4688 16.9837 20.321 16.9837C22.4141 16.9837 22.4015 18.8899 22.3918 20.3666C22.379 22.2968 22.4095 24.2666 22.4095 26.2111H26.2067V19.7044C26.1745 15.5497 25.1641 13.6353 21.8399 13.6353C19.8657 13.6353 18.642 14.5955 18.0046 15.4643V13.8826Z" fill="#F8F8F8"/>
</svg>
