<svg width="109" height="17" viewBox="0 0 109 17" fill="none" xmlns="http://www.w3.org/2000/svg">
<g clip-path="url(#clip0_15_127)">
<path d="M16.1348 3.15391H3.19536V6.58454C5.91687 6.58454 8.59731 6.58454 11.275 6.58454C15.3491 6.58454 16.2197 7.46068 16.2279 11.5758C16.2279 11.7592 16.2279 11.9399 16.2279 12.1234C16.2006 15.1023 15.0424 16.2604 12.069 16.2632C8.10995 16.2686 4.15364 16.2632 0.0960128 16.2632V13.2049H13.03V9.69484C10.4536 9.69484 7.91556 9.69484 5.37475 9.69484C0.723 9.69758 -0.0135047 8.96107 0.000185022 4.31206C0.00839883 1.17986 1.17202 0.0217101 4.30422 0.0217101C7.817 0.0217101 11.3298 0.0134963 14.8425 0.0189722C15.245 0.0189722 15.6448 0.070993 16.1348 0.106586V3.15391Z" fill="white"/>
<path d="M65.2997 9.6433C66.4523 10.9767 67.2299 12.1047 68.2457 12.9453C68.7057 13.3258 69.6448 13.2218 70.3539 13.178C71.4792 13.1095 71.9063 13.512 71.8735 14.6647C71.8433 15.6832 71.6928 16.2089 70.4552 16.2609C68.5879 16.3403 67.1067 15.9159 65.8637 14.4347C64.7247 13.0767 63.3913 11.8802 62.1401 10.6153C61.8827 10.3552 61.6445 9.9609 61.3406 9.89519C60.6041 9.73639 59.8238 9.65151 59.09 9.74734C58.9531 9.76651 58.8984 10.7659 58.8847 11.3162C58.8573 12.5921 58.8628 13.8707 58.8847 15.1493C58.9093 16.3814 58.0414 16.187 57.272 16.2253C56.4534 16.2664 55.8483 16.1815 55.8565 15.1055C55.8839 10.5441 55.8675 5.97994 55.8647 1.41854C55.8647 0.654653 56.1522 0.227535 56.9928 0.238487C61.0504 0.290508 65.1108 0.285032 69.1684 0.372646C70.6633 0.405501 71.69 1.48151 71.7995 2.97916C71.8735 3.97851 71.8023 4.98607 71.8433 5.98815C71.9392 8.33457 70.666 9.43522 68.054 9.63783C67.2628 9.69806 66.4633 9.64604 65.2997 9.64604V9.6433ZM69.3272 3.06951C65.9431 3.06951 62.674 3.05309 59.4104 3.10511C59.1776 3.10784 58.7587 3.60615 58.7505 3.88542C58.6602 6.59598 58.6766 6.66716 61.3461 6.76573C63.8705 6.85882 66.4031 6.78489 68.9548 6.78489C69.0862 5.46521 69.193 4.40563 69.3299 3.06951H69.3272Z" fill="white"/>
<path d="M34.8346 8.26617C34.8346 9.7693 34.8648 11.2752 34.8237 12.7783C34.7689 14.8838 33.5067 16.2062 31.4095 16.2445C28.2663 16.302 25.1204 16.2993 21.9773 16.2445C20.1703 16.2144 18.8615 15.1165 18.7821 13.3478C18.6315 9.93905 18.5877 6.51663 18.6836 3.1079C18.7356 1.26253 20.0443 0.107122 21.928 0.0633145C25.115 -0.0133477 28.3101 -0.0215615 31.4971 0.0687904C33.6053 0.129025 34.7854 1.47335 34.8292 3.61716C34.862 5.16683 34.8346 6.7165 34.8346 8.26617ZM31.697 3.22016H21.8103V13.0274H31.697V3.22016Z" fill="white"/>
<path d="M40.3626 16.1974H37.2277C37.2277 11.7592 37.1592 7.3922 37.2605 3.03067C37.3016 1.25922 38.802 0.0545273 40.724 0.0326238C44.601 -0.0111832 48.4779 0.0298859 52.3548 0.00250653C53.1981 -0.00296934 53.5047 0.336535 53.4445 1.1497C53.4007 1.73288 53.4363 2.32154 53.4363 3.07173H40.4365V6.58725C42.3996 6.58725 44.3436 6.58725 46.2903 6.58725C48.1137 6.58725 49.9427 6.66117 51.7634 6.55713C53.0502 6.4832 53.6745 6.82545 53.4445 8.20537C53.3706 8.64344 53.3952 9.09793 53.3706 9.67016H40.3681V16.1974H40.3626Z" fill="white"/>
<path d="M83.9037 3.07452V13.1857C85.8422 13.1857 87.6328 13.1748 89.4207 13.1885C90.6226 13.1967 90.4419 14.1057 90.4638 14.8641C90.4857 15.5951 90.4419 16.2276 89.4179 16.2221C84.7689 16.1975 80.1226 16.2276 75.4736 16.1646C75.1396 16.1591 74.6303 15.6197 74.5263 15.2392C74.3812 14.708 74.5427 14.092 74.5783 13.402H81.0535V3.10464H74.5892C74.5509 2.35171 74.3976 1.70829 74.5318 1.13059C74.6139 0.777393 75.1341 0.268136 75.4572 0.268136C80.0542 0.259923 84.6539 0.344799 89.2536 0.361226C90.5076 0.366702 90.4556 1.1607 90.4775 2.01768C90.5021 3.00607 89.908 3.09369 89.1359 3.08274C87.422 3.05809 85.7053 3.07452 83.901 3.07452H83.9037Z" fill="white"/>
<path d="M108.319 12.8028C108.861 13.4927 108.919 14.6345 108.962 15.5818C108.971 15.768 107.905 16.1266 107.322 16.1622C106.994 16.1841 106.304 15.6256 106.342 15.4695C106.712 13.9883 105.351 13.4298 104.74 12.5755C104.029 11.5734 102.865 10.8643 101.814 10.1497C101.507 9.9389 100.757 9.94437 100.494 10.1771C99.1523 11.3517 97.8874 12.6193 96.6334 13.8897C96.3596 14.1635 96.0365 14.5961 96.0612 14.9302C96.22 16.8878 94.7716 16.165 93.9228 16.1704C92.7455 16.1787 93.1179 15.1492 93.1288 14.5085C93.1644 12.6905 94.9222 12.1238 95.8558 10.9547C96.5266 10.1141 97.3945 9.42964 98.0653 8.58909C98.2241 8.39196 98.0763 7.72938 97.849 7.48023C96.8771 6.42338 95.7408 5.50891 94.8236 4.411C94.161 3.61426 93.6655 2.64503 93.2575 1.68675C93.0166 1.11452 93.0084 0.293142 93.9721 0.276714C94.736 0.263025 95.5218 -0.103859 96.0639 1.13916C97.1372 3.59509 99.2974 5.18036 101.447 6.68896C101.573 6.77658 101.786 6.74372 101.948 6.76563L103.391 4.95311L104.423 3.65533C104.499 3.5595 104.59 3.4582 104.694 3.35689C105.406 2.65598 106.38 2.10292 106.367 0.818826C106.367 0.629908 107.555 0.334211 108.209 0.284928C108.467 0.263025 108.995 0.783233 108.998 1.0625C109.009 1.76341 109.001 2.62313 108.62 3.1406C107.919 4.08245 107.051 4.90383 106.186 5.71426L106.181 5.71973L104.083 8.35089C104.113 8.63016 104.302 8.88753 104.625 9.17775C105.91 10.3332 107.265 11.4557 108.319 12.8028Z" fill="white"/>
</g>
<defs>
<clipPath id="clip0_15_127">
<rect width="109" height="16.2962" fill="white"/>
</clipPath>
</defs>
</svg>
