<svg width="34" height="34" viewBox="0 0 34 34" fill="none" xmlns="http://www.w3.org/2000/svg">
<rect width="34" height="34" rx="4" fill="#0968A8"/>
<path d="M13.5707 24.7889C11.4429 24.7889 9.45949 24.1514 7.79004 23.0514C9.20746 23.1459 11.7089 22.9197 13.2648 21.3909C10.9242 21.2803 9.86866 19.4311 9.73098 18.6409C9.92986 18.7199 10.8783 18.8148 11.4137 18.5935C8.72133 17.8981 8.30829 15.4642 8.40008 14.7214C8.9049 15.0849 9.76158 15.2113 10.0981 15.1797C7.58929 13.3306 8.49186 10.549 8.9355 9.94838C10.7359 12.5178 13.4342 13.9609 16.7724 14.0412C16.7094 13.7568 16.6762 13.4608 16.6762 13.1567C16.6762 10.9746 18.3884 9.20557 20.5006 9.20557C21.6042 9.20557 22.5986 9.68848 23.2967 10.4609C24.0341 10.2829 25.144 9.86621 25.6866 9.50585C25.4131 10.5173 24.5617 11.3611 24.0466 11.6739C24.0424 11.6632 24.0509 11.6845 24.0466 11.6739C24.499 11.6034 25.7231 11.3611 26.2067 11.0231C25.9676 11.5913 25.0649 12.5362 24.3241 13.0651C24.4619 19.3266 19.8112 24.7889 13.5707 24.7889Z" fill="#F8F8F8"/>
</svg>
