<svg width="98" height="47" viewBox="0 0 98 47" fill="none" xmlns="http://www.w3.org/2000/svg">
<g clip-path="url(#clip0_14_2440)">
<mask id="mask0_14_2440" style="mask-type:luminance" maskUnits="userSpaceOnUse" x="0" y="0" width="98" height="47">
<path d="M97.0904 0.000366211H0.687988V46.9965H97.0904V0.000366211Z" fill="white"/>
</mask>
<g mask="url(#mask0_14_2440)">
<path d="M27.9732 28.5839H20.0463L26.4455 21.7892L24.7865 20.0273C23.8765 19.0608 23.1088 18.2662 23.0895 18.2662C23.0702 18.2662 21.6204 19.7864 19.8757 21.6484L16.6904 25.0312V15.4273H11.9412V24.9905L8.77513 21.6283C7.03121 19.7761 5.5897 18.2662 5.57106 18.2662C5.55173 18.2662 4.79369 19.0615 3.8741 20.0273L2.21511 21.7892L8.61426 28.5839H0.687988V33.6168H27.9732V28.5839ZM40.1544 34.0676C43.9673 34.0676 46.6108 32.0317 46.7779 28.323H42.492C42.2973 29.6057 41.4909 30.303 40.1827 30.303C39.3197 30.303 38.6238 29.9406 38.1509 29.2709C37.7332 28.6572 37.5109 27.821 37.5109 26.7889C37.5109 25.7016 37.7615 24.8925 38.1785 24.2511C38.6797 23.5539 39.4032 23.1638 40.3214 23.1638C41.6573 23.1638 42.5203 23.861 42.7426 25.1714H47.0002C46.8614 21.4903 44.162 19.3991 40.3214 19.3991C37.7615 19.3991 35.7021 20.347 34.4773 22.104C33.6427 23.3032 33.1698 24.8932 33.1698 26.7889C33.1698 28.6572 33.6151 30.1912 34.4497 31.3903C35.6462 33.1474 37.651 34.0676 40.1544 34.0676ZM55.8978 34.0676C58.542 34.0676 60.7119 32.9803 61.9927 31.1114C62.7989 29.9123 63.2441 28.4341 63.2441 26.733C63.2441 25.0319 62.7989 23.5539 61.9921 22.3546C60.7119 20.4864 58.5413 19.3991 55.8978 19.3991C53.2537 19.3991 51.1114 20.4864 49.8307 22.3546C49.0237 23.5539 48.5784 25.0319 48.5784 26.733C48.5784 28.4341 49.0237 29.9123 49.8307 31.1114C51.1114 32.9803 53.2537 34.0676 55.8978 34.0676ZM52.9202 26.733C52.9202 25.7851 53.1701 24.976 53.5602 24.3906C54.089 23.6104 54.9237 23.1638 55.8978 23.1638C56.8989 23.1638 57.7066 23.6098 58.2355 24.3906C58.6525 24.976 58.8755 25.7851 58.8755 26.733C58.8755 27.6816 58.6525 28.4901 58.2355 29.0755C57.7066 29.8563 56.8996 30.303 55.8978 30.303C54.9237 30.303 54.089 29.8563 53.5602 29.0755C53.1701 28.4901 52.9202 27.6809 52.9202 26.733ZM64.9474 33.6493H69.2608V26.1752C69.2608 24.3347 69.9007 23.3861 70.9858 23.3861C71.9601 23.3861 72.4337 23.9729 72.4337 25.4503V27.2908H76.8302V24.0557C76.8302 21.0719 75.5776 19.3991 73.129 19.3991C70.9033 19.3991 69.4838 20.6818 68.5655 23.8051H67.9811L69.2054 19.8168H64.9474V33.6493ZM82.2378 34.0676C84.7419 34.0676 86.1897 32.7849 86.941 29.9958H87.4972L86.4958 33.6493H90.7254V24.753C90.7254 21.239 88.4992 19.3991 84.3804 19.3991C77.8123 19.3991 77.7575 24.2511 77.7575 24.7254V24.809H82.1264V24.7254C82.1264 24.53 82.1547 22.8013 84.2412 22.8013C85.6324 22.8013 86.3843 23.4986 86.3843 24.753V25.5055L82.9054 25.8127C81.2081 25.9522 79.9278 26.4824 79.0933 27.3192C78.3974 28.0164 78.0359 28.9643 78.0359 30.1359C78.0359 31.2792 78.4251 32.1995 79.121 32.8961C79.8446 33.6493 80.9575 34.0676 82.2378 34.0676ZM82.4879 29.7735C82.4879 29.3827 82.6276 29.0479 82.8494 28.8249C83.1838 28.4901 83.6567 28.2947 84.3249 28.2111L86.3843 27.9605V28.0434C86.3843 28.9643 85.7999 31.0555 83.852 31.0555C83.4067 31.0555 83.0452 30.916 82.8223 30.6931C82.5999 30.4701 82.4879 30.1636 82.4879 29.7728V29.7735ZM92.5209 33.6493H96.835V15.4273H92.5209V33.6493Z" fill="#0D0D0D" fill-opacity="0.97"/>
</g>
</g>
<defs>
<clipPath id="clip0_14_2440">
<rect width="96.4024" height="46.9962" fill="white" transform="translate(0.687012 0.000366211)"/>
</clipPath>
</defs>
</svg>
