<svg width="132" height="47" viewBox="0 0 132 47" fill="none" xmlns="http://www.w3.org/2000/svg">
<path d="M22.6877 14.4426H26.3765V33.2851H22.6877V31.598C21.6011 32.9896 20.057 33.6855 18.0553 33.6855C16.1299 33.6855 14.4809 32.9611 13.1084 31.5122C11.7549 30.0444 11.0781 28.2524 11.0781 26.1363C11.0781 24.0203 11.7549 22.2379 13.1084 20.7891C14.4809 19.3212 16.1299 18.5873 18.0553 18.5873C20.057 18.5873 21.6011 19.2831 22.6877 20.6747V14.4426ZM15.8821 29.053C16.6446 29.7965 17.5978 30.1682 18.7416 30.1682C19.8854 30.1682 20.829 29.7965 21.5725 29.053C22.316 28.2905 22.6877 27.3183 22.6877 26.1363C22.6877 24.9544 22.316 23.9917 21.5725 23.2482C20.829 22.4857 19.8854 22.1044 18.7416 22.1044C17.5978 22.1044 16.6446 22.4857 15.8821 23.2482C15.1386 23.9917 14.7669 24.9544 14.7669 26.1363C14.7669 27.3183 15.1386 28.2905 15.8821 29.053Z" fill="black"/>
<path d="M32.8681 27.652C33.3638 29.4439 34.7077 30.3398 36.9 30.3398C38.3107 30.3398 39.378 29.8633 40.1024 28.9101L43.0764 30.6259C41.6658 32.6656 39.588 33.6855 36.8428 33.6855C34.479 33.6855 32.5822 32.9707 31.1525 31.5409C29.7227 30.1111 29.0078 28.3097 29.0078 26.1364C29.0078 23.9822 29.7131 22.1903 31.1238 20.7605C32.5345 19.3117 34.3455 18.5873 36.5568 18.5873C38.654 18.5873 40.3789 19.3117 41.7326 20.7605C43.105 22.2094 43.7916 24.0013 43.7916 26.1364C43.7916 26.613 43.7439 27.1181 43.6484 27.652H32.8681ZM32.8109 24.7925H40.1024C39.8928 23.8202 39.4544 23.0958 38.7873 22.6192C38.1392 22.1426 37.3957 21.9044 36.5568 21.9044C35.5656 21.9044 34.7459 22.1617 34.0977 22.6764C33.4495 23.1721 33.0206 23.8774 32.8109 24.7925Z" fill="black"/>
<path d="M54.6865 18.5873C56.6119 18.5873 58.2512 19.3213 59.6049 20.7892C60.9774 22.238 61.6636 24.0204 61.6636 26.1364C61.6636 28.2525 60.9774 30.0445 59.6049 31.5123C58.2512 32.9611 56.6119 33.6855 54.6865 33.6855C52.6847 33.6855 51.1409 32.9897 50.0541 31.5981V33.2852H46.3652V14.4427H50.0541V20.6747C51.1409 19.2831 52.6847 18.5873 54.6865 18.5873ZM51.1691 29.0531C51.9126 29.7966 52.8562 30.1683 53.9999 30.1683C55.144 30.1683 56.0876 29.7966 56.8311 29.0531C57.5936 28.2906 57.9748 27.3183 57.9748 26.1364C57.9748 24.9545 57.5936 23.9918 56.8311 23.2483C56.0876 22.4858 55.144 22.1045 53.9999 22.1045C52.8562 22.1045 51.9126 22.4858 51.1691 23.2483C50.4256 23.9918 50.0541 24.9545 50.0541 26.1364C50.0541 27.3183 50.4256 28.2906 51.1691 29.0531Z" fill="black"/>
<path d="M64.1475 33.2852V13.5848H67.8359V33.2852H64.1475Z" fill="black"/>
<path d="M83.2756 31.5122C81.8077 32.9612 80.016 33.6855 77.8997 33.6855C75.7838 33.6855 73.9917 32.9612 72.5238 31.5122C71.075 30.0445 70.3506 28.2525 70.3506 26.1364C70.3506 24.0204 71.075 22.238 72.5238 20.7891C73.9917 19.3213 75.7838 18.5873 77.8997 18.5873C80.016 18.5873 81.8077 19.3213 83.2756 20.7891C84.7435 22.238 85.4775 24.0204 85.4775 26.1364C85.4775 28.2525 84.7435 30.0445 83.2756 31.5122ZM75.1262 28.9674C75.8697 29.7108 76.7942 30.0825 77.8997 30.0825C79.0056 30.0825 79.9301 29.7108 80.6736 28.9674C81.4171 28.2238 81.7886 27.2803 81.7886 26.1364C81.7886 24.9926 81.4171 24.049 80.6736 23.3055C79.9301 22.562 79.0056 22.1903 77.8997 22.1903C76.7942 22.1903 75.8697 22.562 75.1262 23.3055C74.4018 24.049 74.0394 24.9926 74.0394 26.1364C74.0394 27.2803 74.4018 28.2238 75.1262 28.9674Z" fill="black"/>
<path d="M94.6448 33.6855C92.4907 33.6855 90.6894 32.9612 89.2406 31.5122C87.8106 30.0635 87.0957 28.2715 87.0957 26.1364C87.0957 24.0013 87.8106 22.2094 89.2406 20.7605C90.6894 19.3117 92.4907 18.5873 94.6448 18.5873C96.0367 18.5873 97.3042 18.9209 98.4482 19.5881C99.5919 20.2554 100.459 21.1514 101.05 22.2761L97.8762 24.1348C97.5902 23.5438 97.1518 23.0768 96.5607 22.7336C95.989 22.3905 95.3406 22.2189 94.6162 22.2189C93.5107 22.2189 92.5957 22.5906 91.8713 23.3341C91.1469 24.0585 90.7845 24.9926 90.7845 26.1364C90.7845 27.2611 91.1469 28.1952 91.8713 28.9387C92.5957 29.6631 93.5107 30.0253 94.6162 30.0253C95.3597 30.0253 96.0176 29.8633 96.5893 29.5393C97.1804 29.1961 97.6188 28.729 97.9048 28.138L101.108 29.9681C100.478 31.0929 99.5919 31.9984 98.4482 32.6847C97.3042 33.3519 96.0367 33.6855 94.6448 33.6855Z" fill="black"/>
<path d="M115.77 33.2851H111.481L106.277 26.794V33.2851H102.588V14.4426H106.277V25.2785L111.195 18.9876H115.599L109.851 26.0506L115.77 33.2851Z" fill="black"/>
</svg>
