<svg width="121" height="47" viewBox="0 0 121 47" fill="none" xmlns="http://www.w3.org/2000/svg">
<g style="mix-blend-mode:luminosity">
<path fill-rule="evenodd" clip-rule="evenodd" d="M20.4594 33.6261C20.4594 34.0903 20.3962 34.4941 20.27 34.845C20.1558 35.1707 19.9553 35.458 19.6906 35.6752C19.4314 35.8983 19.1018 36.0188 18.7622 36.0148C18.5448 36.0158 18.3305 35.963 18.1378 35.8612C17.945 35.7593 17.7795 35.6113 17.6555 35.4299L17.5961 35.7318C17.5849 35.7922 17.5626 35.8564 17.5292 35.9281H16.7827C16.8199 35.8186 16.8496 35.6941 16.8681 35.5432C16.8867 35.396 16.8941 35.1771 16.8941 34.8865V30.6336C16.8941 30.3845 16.883 30.1769 16.857 30.0072C16.8393 29.858 16.8057 29.7112 16.7567 29.5694L17.5961 29.3921C17.6549 29.708 17.6836 30.029 17.6815 30.3506V31.66C17.674 31.7506 17.6703 31.811 17.6555 31.8411L17.6815 31.86C17.8323 31.6963 18.0142 31.5654 18.2162 31.4751C18.4039 31.3985 18.6045 31.36 18.8067 31.3619C19.3267 31.3619 19.7352 31.5619 20.0248 31.9619C20.3145 32.3619 20.4594 32.9167 20.4594 33.6261ZM19.5681 33.6072C19.5681 33.4601 19.5681 33.3355 19.5606 33.2299C19.5562 33.1375 19.5463 33.0455 19.5309 32.9544C19.518 32.8813 19.4994 32.8094 19.4752 32.7393C19.4505 32.6698 19.422 32.6018 19.3898 32.5355C19.3217 32.39 19.2127 32.2682 19.0765 32.1856C18.9404 32.103 18.7831 32.0632 18.6247 32.0714C18.4948 32.0714 18.3759 32.0902 18.2757 32.1317C18.0949 32.2024 17.9305 32.3104 17.7928 32.4487L17.6815 32.5883V34.845C17.7854 34.9695 17.9191 35.079 18.0825 35.1733C18.246 35.2677 18.4205 35.3129 18.6099 35.3129C18.7584 35.3129 18.8996 35.2752 19.0295 35.2073C19.1595 35.1356 19.2598 35.0375 19.3267 34.9129C19.4009 34.7884 19.4566 34.6261 19.5012 34.4224C19.5458 34.2261 19.5681 33.9506 19.5681 33.6072ZM23.4564 36.0677L24.9567 31.4789H24.084L23.319 34.1054C23.2036 34.4673 23.1069 34.8351 23.0293 35.2073H22.9773C22.9367 35.0293 22.8933 34.8519 22.8473 34.6752L22.7285 34.1582L21.904 31.3657L21.1093 31.5506L22.06 34.4714C22.1454 34.7356 22.2234 34.9847 22.2865 35.211C22.3534 35.4375 22.4128 35.6866 22.4722 35.9545L22.7804 35.9092C22.7173 36.1356 22.6617 36.313 22.6096 36.445C22.512 36.716 22.3293 36.9468 22.0897 37.1017C21.9647 37.1862 21.8266 37.2487 21.6812 37.2866L21.93 37.8149C22.2227 37.7579 22.497 37.6283 22.7285 37.4375C22.877 37.3055 23.0107 37.1243 23.1296 36.8941C23.2597 36.6278 23.369 36.3515 23.4564 36.0677ZM31.5078 33.6261C31.5078 33.977 31.4707 34.2941 31.4039 34.5846C31.3296 34.8752 31.2256 35.128 31.0808 35.3393C30.9461 35.5453 30.7654 35.716 30.5534 35.8375C30.2557 35.989 29.9192 36.0431 29.59 35.9925C29.2609 35.9418 28.9552 35.7888 28.7151 35.5544C28.7275 35.633 28.7325 35.7127 28.7299 35.7922V37.6149L27.9612 37.7998V32.5695C27.9612 32.3053 27.9501 32.0902 27.9352 31.928C27.9186 31.776 27.895 31.6249 27.8646 31.4751L28.6297 31.343C28.6477 31.4174 28.6601 31.4931 28.6668 31.5694C28.6742 31.6562 28.6816 31.7959 28.6816 31.9846C28.8315 31.7892 29.0217 31.6295 29.2387 31.5166C29.4434 31.4154 29.6684 31.3637 29.896 31.3657C30.1156 31.3597 30.3334 31.4073 30.5311 31.5045C30.7288 31.6016 30.9008 31.7456 31.0325 31.9242C31.181 32.1129 31.2924 32.3468 31.3816 32.6337C31.467 32.9167 31.5078 33.2488 31.5078 33.6261ZM30.6611 33.7242C30.6611 33.1959 30.5942 32.7884 30.4643 32.494C30.3306 32.2035 30.0966 32.0563 29.7587 32.0563C29.3762 32.0563 29.0344 32.2374 28.7299 32.6072V34.8714C28.8636 35.0186 29.0085 35.1356 29.1682 35.2262C29.3279 35.3129 29.4876 35.3582 29.651 35.3582C29.9964 35.3582 30.2526 35.2224 30.416 34.9545C30.5794 34.6827 30.6611 34.2752 30.6611 33.7242ZM35.7192 36.113C35.5813 36.0581 35.4576 35.9717 35.3578 35.8604C35.258 35.7492 35.1847 35.6161 35.1436 35.4715C35.1018 35.5231 35.0585 35.5734 35.0137 35.6224C34.9414 35.6976 34.8603 35.7635 34.7722 35.8186C34.5206 35.9813 34.2275 36.0653 33.9292 36.0602C33.5613 36.0816 33.1986 35.9632 32.9117 35.7281C32.6628 35.5016 32.5403 35.1808 32.5403 34.7544C32.5403 34.2337 32.726 33.8412 33.1047 33.5733C33.4836 33.3053 34.0221 33.1732 34.724 33.1732H34.9394C34.9683 33.1714 34.9973 33.1752 35.0248 33.1846V32.8902C35.0248 32.7582 35.0174 32.6412 35.0025 32.5317C34.9921 32.4334 34.9617 32.3383 34.9134 32.2525C34.8665 32.1726 34.7964 32.1094 34.7128 32.0714C34.5995 32.0258 34.478 32.0053 34.3563 32.011C34.1261 32.011 33.8958 32.06 33.6581 32.1619C33.4363 32.2529 33.2266 32.3722 33.0342 32.5167L32.674 31.9317C32.7874 31.8679 32.9013 31.805 33.0157 31.7431C33.2965 31.5899 33.5963 31.4756 33.907 31.4034C34.0937 31.3628 34.2842 31.3426 34.4751 31.343C34.7908 31.343 35.0545 31.4034 35.2736 31.5204C35.489 31.6412 35.6376 31.8185 35.7192 32.0563C35.7564 32.1506 35.775 32.2487 35.7898 32.3582C35.8141 32.6191 35.8178 32.8815 35.801 33.1431C35.7966 33.43 35.788 33.7168 35.775 34.0035C35.7714 34.2966 35.7726 34.5897 35.7787 34.8828C35.7861 34.9959 35.801 35.0903 35.8232 35.1733C35.8455 35.2564 35.879 35.3243 35.9235 35.3884C35.9718 35.4526 36.0349 35.5092 36.1241 35.562L35.7192 36.113ZM35.0099 33.7431L34.8614 33.728C34.8243 33.7252 34.7872 33.724 34.75 33.7242C34.4529 33.7242 34.2152 33.7507 34.0295 33.8073C33.8475 33.8639 33.7139 33.9431 33.6284 34.045C33.5467 34.1431 33.491 34.2412 33.4539 34.3318C33.4204 34.4262 33.4056 34.5431 33.4056 34.6941C33.4056 34.9393 33.4613 35.1318 33.5801 35.2639C33.6989 35.3997 33.8661 35.4639 34.0815 35.4639C34.2672 35.4639 34.4343 35.4111 34.5977 35.3054C34.759 35.1977 34.8917 35.0512 34.9839 34.879L35.0063 33.7431H35.0099ZM39.3179 32.1959L39.5965 31.3807C39.5104 31.3507 39.4201 31.3354 39.3291 31.3355C38.8908 31.3355 38.5009 31.5921 38.1629 32.1091V32.0298C38.1629 31.9166 38.1481 31.7959 38.1221 31.6638C38.0998 31.5531 38.0649 31.4455 38.0181 31.343L37.253 31.5468C37.3856 31.9017 37.4414 32.2813 37.4165 32.6601V35.9281H38.2075V33.0601C38.2075 32.9355 38.2298 32.8186 38.2818 32.7091C38.3263 32.5959 38.3932 32.5016 38.4712 32.4186C38.5532 32.3343 38.651 32.2675 38.7588 32.2221C38.8665 32.1768 38.9822 32.1538 39.0988 32.1543C39.1434 32.1543 39.1805 32.1543 39.2139 32.1657L39.3216 32.1959H39.3179ZM41.0783 33.8752V33.9808C41.0783 34.3733 41.1377 34.6677 41.2602 34.8714C41.3716 35.0488 41.5165 35.1808 41.6836 35.2639C41.858 35.3508 42.0501 35.3948 42.2444 35.3922C42.6381 35.3922 42.9908 35.2526 43.2991 34.9657L43.5999 35.4563C43.1936 35.8302 42.6624 36.0327 42.1144 36.0224C41.8173 36.0224 41.5536 35.9696 41.316 35.8601C41.0818 35.7529 40.8748 35.5929 40.7106 35.3922C40.5361 35.1753 40.4061 34.9251 40.3281 34.6563C40.2353 34.3366 40.1902 34.0046 40.1944 33.6714C40.1944 33.2865 40.2352 32.9581 40.3169 32.6902C40.3976 32.4181 40.5315 32.1652 40.7106 31.9468C40.8647 31.7502 41.0616 31.5926 41.2859 31.4865C41.5102 31.3804 41.7557 31.3287 42.003 31.3355C42.3609 31.321 42.7127 31.433 42.9985 31.6525C43.2843 31.872 43.4863 32.1854 43.5702 32.5393C43.611 32.6902 43.6445 32.8638 43.6631 33.0601C43.6853 33.2525 43.6928 33.4752 43.6928 33.7318V33.8752H41.0783ZM42.872 33.2714C42.872 32.8261 42.7829 32.494 42.6046 32.2676C42.5333 32.1766 42.4449 32.101 42.3447 32.045C42.2352 31.9853 42.1123 31.9553 41.9881 31.9582C41.6799 31.9582 41.4534 32.0714 41.3048 32.3091C41.1462 32.6032 41.0716 32.9365 41.0894 33.2714H42.872ZM47.3991 35.9281H48.179V32.5581C48.179 32.343 48.1418 32.1581 48.075 31.9959C47.9935 31.8069 47.8559 31.6486 47.6813 31.543C47.4967 31.4254 47.2828 31.3639 47.0649 31.3657C46.784 31.37 46.5089 31.448 46.2664 31.5921C46.1775 31.6426 46.093 31.7006 46.0139 31.7657L45.7093 32.0261C45.7093 31.8902 45.6982 31.7657 45.6722 31.66C45.6482 31.5489 45.6108 31.4411 45.5608 31.3393L44.818 31.5544L44.8923 31.7808C44.9372 31.9406 44.9634 32.1053 44.9703 32.2714C44.9777 32.3657 44.9814 32.4789 44.9814 32.611V35.9205H45.7614V32.6337C45.9136 32.4714 46.0918 32.3393 46.2887 32.2299C46.4506 32.1303 46.6344 32.0732 46.8235 32.0638C47.0314 32.0638 47.1763 32.1242 47.2617 32.2412C47.3137 32.3129 47.3471 32.3921 47.3694 32.4865C47.388 32.577 47.3991 32.7242 47.3991 32.9242V35.9243V35.9281ZM51.4286 32.0563L51.6439 31.4789H50.5967C50.6002 31.1262 50.6163 30.7737 50.645 30.4222C50.6525 30.3302 50.6624 30.2383 50.6747 30.1467L49.8576 30.343C49.8353 30.5128 49.8205 30.7015 49.8168 30.9091C49.8118 31.0977 49.8093 31.2864 49.8093 31.4751H49.2931V32.0563H49.8093V34.9243C49.8093 35.0828 49.8168 35.2148 49.8353 35.3129C49.8471 35.3973 49.8695 35.4798 49.9022 35.5582C49.9319 35.6186 49.9653 35.6714 50.0025 35.7092L50.125 35.8299C50.1956 35.8941 50.2958 35.9469 50.4333 35.9884C50.5707 36.03 50.7118 36.0526 50.8529 36.0526C51.124 36.054 51.3914 35.9893 51.6328 35.8639L51.5399 35.3658C51.4148 35.4266 51.2776 35.4576 51.1389 35.4563C50.9198 35.4563 50.7712 35.4073 50.6932 35.3054C50.6189 35.2035 50.5818 35.0149 50.5818 34.7394V32.0563H51.4286ZM55.6625 34.5582C55.6625 34.2563 55.5766 33.9997 55.4022 33.7809C55.1747 33.5358 54.8749 33.3728 54.5481 33.3167L53.9911 33.1846C53.8148 33.156 53.6501 33.0775 53.5157 32.9581C53.4244 32.8549 53.3764 32.7195 53.382 32.5808C53.382 32.377 53.4526 32.2185 53.5863 32.094C53.72 31.9732 53.9019 31.9128 54.1285 31.9128C54.303 31.9128 54.4701 31.943 54.6373 31.9959C54.8004 32.0525 54.9824 32.1317 55.1834 32.2336L55.4508 31.6562C55.2579 31.5423 55.0521 31.4536 54.8377 31.3921C54.5962 31.3227 54.3462 31.2884 54.0951 31.2902C53.8611 31.2902 53.6494 31.3279 53.4637 31.3921C53.2706 31.46 53.1072 31.5581 52.9735 31.6789C52.8361 31.7997 52.7284 31.943 52.6541 32.1166C52.5798 32.2902 52.5427 32.4751 52.5427 32.6751C52.5427 33.3544 52.8918 33.7695 53.59 33.9091L54.1099 34.0186C54.3699 34.0639 54.5557 34.1469 54.667 34.2601C54.7783 34.3771 54.8339 34.528 54.8339 34.7205C54.8339 34.9393 54.7599 35.113 54.6113 35.2412C54.4665 35.3733 54.277 35.4375 54.0356 35.4375C53.7909 35.4371 53.5482 35.3923 53.3189 35.3054C53.0894 35.2207 52.8671 35.1172 52.6541 34.9959L52.3719 35.5809C52.6223 35.7319 52.8906 35.8498 53.1703 35.9318C53.4321 36.0102 53.7033 36.0509 53.9762 36.0526C54.2213 36.0526 54.4479 36.0148 54.6556 35.9432C54.8533 35.8804 55.0365 35.7777 55.1942 35.6412C55.3427 35.5054 55.4546 35.3469 55.5399 35.1658C55.6247 34.9763 55.6679 34.7702 55.6658 34.562L55.6625 34.5582ZM60.8878 30.2185L61.1514 29.6826C61.0179 29.5993 60.8726 29.5382 60.7203 29.5015C60.5561 29.4626 60.3875 29.4436 60.219 29.4449C59.8922 29.4449 59.6324 29.5166 59.439 29.6562C59.3239 29.7392 59.2164 29.8713 59.1122 30.0487C59.0085 30.226 58.9566 30.4638 58.9566 30.7656V31.1242C58.9582 31.2439 58.9647 31.3634 58.975 31.4827H58.5552V32.06H58.9636V35.9281H59.762V32.0525H60.6906L60.8948 31.4789H59.755V30.7581C59.755 30.5317 59.8031 30.3581 59.9035 30.2336C60.0035 30.109 60.145 30.0449 60.3303 30.0449C60.427 30.0449 60.5161 30.0638 60.609 30.0977C60.6982 30.1279 60.7911 30.1694 60.8878 30.2185ZM65.0953 33.7431C65.0953 34.0978 65.0542 34.4186 64.9651 34.7016C64.876 34.9847 64.7501 35.23 64.5864 35.4262C64.4233 35.6224 64.2261 35.7771 63.9922 35.8865C63.7524 35.9983 63.4909 36.055 63.2273 36.0526C62.9594 36.0559 62.6947 35.9992 62.4511 35.8865C62.2215 35.7784 62.0205 35.6168 61.8644 35.4149C61.6953 35.1946 61.5689 34.9435 61.4928 34.6752C61.4042 34.3573 61.362 34.0281 61.3669 33.6978C61.3669 33.3355 61.4112 33.011 61.4965 32.7242C61.5819 32.4374 61.7045 32.1959 61.8644 31.9883C62.0194 31.788 62.2177 31.6266 62.4435 31.5166C62.6666 31.4072 62.9264 31.3543 63.2084 31.3543C63.5244 31.3543 63.8031 31.4147 64.037 31.543C64.2699 31.6619 64.4735 31.8336 64.6312 32.045C64.7868 32.2601 64.9024 32.5091 64.9802 32.7997C65.058 33.0903 65.0953 33.4035 65.0953 33.7431ZM64.2153 33.7809C64.2153 33.4337 64.1894 33.1468 64.1445 32.9129C64.1002 32.6865 64.0333 32.5016 63.9441 32.3657C63.8663 32.2393 63.7561 32.1373 63.6249 32.0714C63.4942 32.0112 63.3521 31.9815 63.2084 31.9846C62.867 31.9846 62.618 32.1129 62.4656 32.3695C62.3171 32.6261 62.2431 33.0412 62.2431 33.6072C62.2431 33.9469 62.2614 34.2299 62.3063 34.4601C62.3473 34.6903 62.41 34.8752 62.4921 35.0224C62.565 35.1527 62.6752 35.2578 62.8076 35.3243C62.934 35.3884 63.0788 35.4186 63.2457 35.4186C63.5428 35.4186 63.7767 35.2903 63.9512 35.0337C64.1262 34.7771 64.2115 34.3544 64.2115 33.7771L64.2153 33.7809ZM68.3299 32.1959L68.6049 31.3807C68.519 31.3507 68.4282 31.3354 68.3375 31.3355C67.8994 31.3355 67.5094 31.5921 67.1712 32.1091V32.0298C67.1712 31.9166 67.1566 31.7959 67.1301 31.6638C67.108 31.5531 67.0734 31.4455 67.0264 31.343L66.2615 31.5468C66.3939 31.9017 66.4495 32.2813 66.4247 32.6601V35.9281H67.216V33.0601C67.216 32.9355 67.2382 32.8186 67.29 32.7091C67.3624 32.5243 67.4948 32.3699 67.6644 32.2712C67.8345 32.1726 68.0323 32.1353 68.2262 32.1657L68.3299 32.1959ZM75.1557 33.6299C75.1557 33.977 75.119 34.2941 75.0444 34.5846C74.9861 34.8545 74.8775 35.1107 74.7252 35.3393C74.5901 35.5452 74.4097 35.7159 74.1979 35.8375C73.9003 35.989 73.5638 36.0431 73.2342 35.9925C72.9053 35.9418 72.5995 35.7888 72.3591 35.5544C72.3732 35.6329 72.3791 35.7126 72.3781 35.7922V37.6149L71.6056 37.7998V32.5695C71.6056 32.3053 71.5942 32.0902 71.5797 31.928C71.5629 31.776 71.5397 31.6249 71.5089 31.4751L72.2738 31.343C72.2927 31.4109 72.3035 31.4864 72.3111 31.5694C72.3224 31.6562 72.3262 31.7959 72.3262 31.9846C72.4769 31.7888 72.6681 31.629 72.8869 31.5166C73.0916 31.4155 73.3164 31.3639 73.5443 31.3657C73.7636 31.3603 73.9813 31.4082 74.179 31.5053C74.3762 31.6024 74.5485 31.746 74.6803 31.9242C74.8251 32.1129 74.9407 32.3468 75.026 32.6337C75.1173 32.9561 75.1611 33.2906 75.1557 33.6261V33.6299ZM74.3054 33.7242C74.3054 33.1959 74.2422 32.7884 74.1088 32.494C73.9786 32.2035 73.7447 32.0563 73.4028 32.0563C73.0241 32.0563 72.6789 32.2374 72.3781 32.6072V34.8714C72.5023 35.0137 72.6492 35.1336 72.8124 35.2262C72.9723 35.3129 73.1354 35.3582 73.2953 35.3582C73.6442 35.3582 73.8971 35.2224 74.0602 34.9545C74.2239 34.6827 74.3054 34.2752 74.3054 33.7242ZM79.3637 36.113C79.2265 36.0576 79.1034 35.971 79.0045 35.8598C78.9051 35.7485 78.8322 35.6157 78.7917 35.4715C78.7485 35.5232 78.7042 35.5735 78.6583 35.6224C78.5859 35.6976 78.5048 35.7635 78.4168 35.8186C78.3061 35.8894 78.1878 35.9464 78.0635 35.9884C77.9052 36.0401 77.7399 36.0643 77.5736 36.0602C77.2057 36.0816 76.8427 35.9632 76.5558 35.7281C76.3074 35.5016 76.1847 35.1808 76.1847 34.7544C76.1847 34.2337 76.3706 33.8412 76.7492 33.5733C77.1279 33.3053 77.6665 33.1732 78.372 33.1732H78.5837C78.6134 33.1732 78.6431 33.1732 78.6691 33.1846V32.8902C78.6707 32.7704 78.6647 32.6507 78.6507 32.5317C78.6388 32.4331 78.6075 32.338 78.5578 32.2525C78.5108 32.1726 78.4406 32.1094 78.3574 32.0714C78.2439 32.0258 78.1224 32.0053 78.0008 32.011C77.774 32.011 77.5401 32.06 77.3024 32.1619C77.082 32.2534 76.8735 32.3726 76.6823 32.5167L76.3219 31.9317L76.6601 31.7431C76.7827 31.6714 76.9199 31.6072 77.0685 31.5506C77.2251 31.4873 77.3867 31.4368 77.5514 31.3997C77.7394 31.3601 77.9312 31.341 78.1235 31.343C78.4352 31.343 78.7025 31.4034 78.9181 31.5204C79.1298 31.6326 79.2903 31.8251 79.3637 32.0563C79.4005 32.1506 79.4232 32.2487 79.434 32.3582C79.4453 32.4638 79.4529 32.6223 79.4529 32.8374C79.4523 33.0728 79.4458 33.3081 79.434 33.5431C79.4215 33.8574 79.4151 34.1719 79.4156 34.4865C79.4156 34.6413 79.4194 34.7733 79.4269 34.8828C79.4302 34.9959 79.4453 35.0903 79.4675 35.1733C79.5144 35.3378 79.6219 35.4772 79.7683 35.562L79.3637 36.113ZM78.6545 33.7431L78.5059 33.728C78.4686 33.7252 78.4314 33.724 78.3941 33.7242C78.097 33.7242 77.8593 33.7507 77.6778 33.8073C77.492 33.8639 77.358 33.9431 77.2727 34.045C77.2014 34.1309 77.1436 34.2277 77.102 34.3318C77.0647 34.4262 77.0501 34.5431 77.0501 34.6941C77.0501 34.9393 77.1095 35.1318 77.2246 35.2639C77.3434 35.3997 77.5104 35.4639 77.7259 35.4639C77.9096 35.4646 78.0894 35.4094 78.2423 35.3054C78.4033 35.1978 78.5362 35.0513 78.6285 34.879L78.6545 33.7431ZM82.9657 32.1959L83.2407 31.3807C83.1558 31.3511 83.0667 31.3358 82.977 31.3355C82.5352 31.3355 82.1452 31.5921 81.8108 32.1091V32.0298C81.8108 31.9166 81.7962 31.7959 81.7665 31.6638C81.7443 31.5531 81.7092 31.4455 81.6622 31.343L80.9011 31.5468C80.953 31.6864 80.9902 31.8374 81.02 31.9996C81.0497 32.1657 81.0642 32.3846 81.0642 32.6601V35.9281H81.8518V33.0601C81.8545 32.8188 81.9507 32.5883 82.1192 32.4186C82.2148 32.32 82.3315 32.2457 82.4606 32.2018C82.5897 32.1579 82.7275 32.1455 82.862 32.1657L82.9657 32.1959ZM84.7262 33.8752V33.9808C84.7262 34.3733 84.7856 34.6677 84.9044 34.8714C85.0157 35.0488 85.161 35.1808 85.3279 35.2639C85.4986 35.3507 85.6845 35.3922 85.8924 35.3922C86.2862 35.3922 86.6352 35.2526 86.9469 34.9657L87.244 35.4563C86.8378 35.8302 86.3068 36.0327 85.7585 36.0224C85.4614 36.0224 85.1977 35.9696 84.9601 35.8601C84.7262 35.7529 84.5193 35.5929 84.3551 35.3922C84.1817 35.1749 84.0531 34.9247 83.9758 34.6563C83.8829 34.3367 83.8381 34.0046 83.8424 33.6714C83.8424 33.2865 83.8797 32.9581 83.9613 32.6902C84.0423 32.4181 84.1763 32.1653 84.3551 31.9468C84.5096 31.7496 84.7067 31.5917 84.932 31.4857C85.1567 31.3795 85.403 31.3281 85.651 31.3355C86.0086 31.3219 86.3592 31.4343 86.6444 31.6538C86.929 31.8732 87.1305 32.1861 87.2143 32.5393C87.2591 32.6902 87.2888 32.8638 87.311 33.0601C87.3299 33.2525 87.3407 33.4752 87.3407 33.7318V33.8752H84.7262ZM86.5163 33.2714C86.5163 32.8261 86.4272 32.494 86.2527 32.2676C86.1814 32.1766 86.0928 32.101 85.9929 32.045C85.8822 31.9846 85.7579 31.9547 85.6326 31.9582C85.3242 31.9582 85.0978 32.0714 84.953 32.3091C84.8045 32.5431 84.7299 32.8638 84.7299 33.2714H86.5163ZM91.0474 35.9281H91.8269V32.5581C91.8269 32.343 91.7896 32.1581 91.7232 31.9959C91.6405 31.8065 91.5012 31.6481 91.3256 31.543C91.1409 31.4256 90.927 31.3641 90.7093 31.3657C90.5791 31.3657 90.4457 31.3845 90.3079 31.4223C90.1685 31.4575 90.0346 31.5134 89.9109 31.5883C89.8217 31.64 89.7375 31.6994 89.6581 31.7657L89.3539 32.0261C89.3539 31.8902 89.3426 31.7657 89.3204 31.66C89.2956 31.549 89.2583 31.4412 89.2086 31.3393L88.4659 31.5544L88.5366 31.7808C88.5831 31.9404 88.6101 32.1051 88.6182 32.2714L88.6258 32.611V35.9205H89.4058V32.6337C89.5608 32.4732 89.7386 32.3371 89.933 32.2299C90.0951 32.1303 90.2787 32.0732 90.4678 32.0638C90.6758 32.0638 90.8205 32.1242 90.9059 32.2412C90.9578 32.3129 90.995 32.3921 91.0177 32.4865C91.0323 32.577 91.0436 32.7242 91.0436 32.9242V35.9243L91.0474 35.9281ZM95.0729 32.0563L95.2884 31.4789H94.241C94.2426 31.2398 94.2502 31.0007 94.2631 30.7619C94.2794 30.5566 94.2977 30.3516 94.3188 30.1467L93.502 30.343C93.4837 30.5128 93.4648 30.7015 93.4648 30.9091C93.4588 31.0977 93.455 31.2864 93.4534 31.4751H92.9375V32.0563H93.4534V34.9243C93.4534 35.0828 93.461 35.2148 93.4799 35.3129C93.4912 35.3973 93.5139 35.4798 93.5463 35.5582C93.576 35.6186 93.6095 35.6714 93.6468 35.7092L93.7694 35.8299C93.8402 35.8941 93.9401 35.9469 94.0779 35.9884C94.2151 36.03 94.3561 36.0526 94.5008 36.0526C94.772 36.054 95.0394 35.9893 95.2809 35.8639L95.1842 35.3658C95.0594 35.4266 94.9222 35.4576 94.7834 35.4563C94.564 35.4563 94.4193 35.4073 94.3377 35.3054C94.2631 35.2035 94.2264 35.0149 94.2264 34.7394V32.0563H95.0729ZM99.3063 34.5582C99.3063 34.2563 99.2248 33.9997 99.0465 33.7809C98.8196 33.5356 98.5193 33.3725 98.1925 33.3167L97.6355 33.1846C97.4605 33.1553 97.2974 33.0768 97.164 32.9581C97.0721 32.8551 97.024 32.7195 97.03 32.5808C97.03 32.377 97.097 32.2185 97.2304 32.094C97.3644 31.9732 97.5464 31.9128 97.7765 31.9128C97.9472 31.9128 98.1147 31.943 98.2816 31.9959C98.4447 32.0525 98.6306 32.1317 98.831 32.2336L99.0951 31.6562C98.9023 31.5423 98.6965 31.4535 98.482 31.3921C98.2405 31.3226 97.9904 31.2883 97.7393 31.2902C97.5054 31.2902 97.2936 31.3279 97.1078 31.3921C96.9187 31.46 96.755 31.5581 96.6178 31.6789C96.4806 31.7997 96.3726 31.943 96.2986 32.1166C96.224 32.2902 96.1868 32.4751 96.1868 32.6751C96.1868 33.3544 96.5363 33.7695 97.2342 33.9091L97.7582 34.0186C98.018 34.0639 98.2 34.1469 98.3113 34.2601C98.4226 34.3771 98.4782 34.528 98.4782 34.7205C98.4782 34.9393 98.4042 35.113 98.2594 35.2412C98.1109 35.3733 97.9213 35.4375 97.6798 35.4375C97.4351 35.4371 97.1926 35.3924 96.963 35.3054C96.734 35.2207 96.5114 35.1172 96.2986 34.9959L96.0161 35.5809C96.2667 35.7318 96.5352 35.8497 96.8145 35.9318C97.0764 36.0101 97.3476 36.0508 97.6204 36.0526C97.8657 36.0526 98.092 36.0148 98.3037 35.9432C98.5004 35.8799 98.6819 35.7772 98.8385 35.6412C98.9871 35.5054 99.1021 35.3469 99.1842 35.1658C99.2691 34.9763 99.3123 34.7702 99.3101 34.562L99.3063 34.5582ZM20.0769 25.4787V16.6709C20.0769 16.2709 20.0694 15.9502 20.0397 15.7049C20.0267 15.507 19.9763 15.3135 19.8911 15.135C19.8215 15.0012 19.7048 14.8988 19.5643 14.8482C19.3894 14.7903 19.206 14.7635 19.0221 14.769C18.645 14.7841 18.2765 14.8874 17.9451 15.0709C17.5214 15.2846 17.131 15.5605 16.7864 15.8898V25.475H13.5926V16.803C13.5926 15.9728 13.5183 15.4181 13.366 15.1502C13.2137 14.8822 12.9018 14.7464 12.4339 14.7464C12.1145 14.7464 11.7579 14.8294 11.3643 14.9917C10.9409 15.1768 10.5535 15.4376 10.2205 15.7615V25.4787H6.92636V16.1728C6.92636 15.203 6.88919 14.4747 6.82604 13.9841C6.77554 13.5586 6.64703 13.1464 6.44727 12.769L9.49256 11.9123C9.60768 12.101 9.69681 12.2897 9.7525 12.4708C9.81192 12.652 9.87507 12.9161 9.94195 13.2633C10.3494 12.8337 10.838 12.4923 11.3786 12.2595C11.9191 12.0267 12.5004 11.9073 13.0875 11.9086C14.1459 11.9086 15.0187 12.2746 15.702 13.0029C15.8729 13.1765 16.0363 13.3954 16.2071 13.6558C16.6985 13.1038 17.2866 12.6496 17.9414 12.3161C18.542 12.0403 19.195 11.9024 19.854 11.9123C20.3554 11.9123 20.8344 11.9878 21.2875 12.1312C21.7406 12.2821 22.1083 12.4821 22.3942 12.7425C22.7582 13.0483 23.0181 13.463 23.137 13.9274C23.2112 14.1803 23.267 14.4747 23.3004 14.8143C23.3338 15.1539 23.3487 15.5502 23.3487 15.9992V25.4787H20.0805H20.0769ZM35.5522 25.841C35.1025 25.5131 34.7546 25.0614 34.5494 24.5391C34.1216 24.9609 33.6101 25.2851 33.0491 25.49C32.4734 25.7089 31.8384 25.8146 31.1551 25.8146C30.3121 25.8304 29.4794 25.625 28.7374 25.2184C28.0971 24.8934 27.6021 24.3337 27.3521 23.6523C27.2429 23.3144 27.1718 22.9649 27.1404 22.6107C27.0926 22.0738 27.0716 21.5347 27.0773 20.9956V12.1425H30.3974V20.3692C30.3974 20.9805 30.4234 21.4484 30.4717 21.7805C30.5237 22.1088 30.5906 22.3692 30.6722 22.5617C30.7577 22.7504 30.9136 22.9013 31.1402 23.0145C31.363 23.1277 31.6044 23.1843 31.8569 23.1843C32.2766 23.1843 32.6963 23.056 33.1122 22.7956C33.5281 22.5353 33.8104 22.2409 33.9441 21.9088V12.1425H37.1639V22.0145C37.1639 22.4673 37.2308 22.9051 37.3645 23.3277C37.4982 23.7541 37.6913 24.1202 37.9438 24.4334L35.5522 25.841ZM54.1694 25.4787V16.6709C54.1694 16.2709 54.1582 15.9502 54.1322 15.7049C54.1194 15.507 54.069 15.3135 53.9836 15.135C53.914 15.0012 53.7973 14.8988 53.6568 14.8482C53.4819 14.7906 53.2985 14.7638 53.1146 14.769C52.7362 14.7835 52.3664 14.8868 52.0339 15.0709C51.6102 15.2845 51.2197 15.5604 50.8752 15.8898V25.475H47.6813V16.803C47.6813 15.9728 47.6071 15.4181 47.4585 15.1502C47.3026 14.8822 46.9943 14.7464 46.5264 14.7464C46.207 14.7464 45.8505 14.8294 45.4568 14.9917C45.0333 15.1768 44.6459 15.4375 44.313 15.7615V25.4787H41.0151V16.1728C41.0151 15.203 40.9817 14.4747 40.9149 13.9841C40.8664 13.5562 40.7391 13.1415 40.5398 12.7614L43.5851 11.9048C43.6965 12.0935 43.7856 12.2822 43.845 12.4633C43.9044 12.6444 43.9676 12.9086 44.0344 13.2558C44.4418 12.8262 44.9305 12.4848 45.4711 12.252C46.0116 12.0191 46.5929 11.8998 47.18 11.901C48.2347 11.901 49.1074 12.267 49.7945 12.9954C49.9616 13.169 50.1287 13.3879 50.2958 13.6482C50.7885 13.096 51.3778 12.6418 52.0339 12.3086C52.6333 12.0333 53.2851 11.8954 53.9428 11.9048C54.4479 11.9048 54.9268 11.9802 55.38 12.1237C55.8332 12.2746 56.1973 12.4746 56.4869 12.735C56.6727 12.8935 56.8207 13.0671 56.9363 13.2558C57.0551 13.4482 57.1513 13.6709 57.2258 13.9199C57.2998 14.1727 57.3555 14.4671 57.389 14.8068C57.4262 15.1464 57.4414 15.5426 57.4414 15.9917V25.4712H54.173L54.1694 25.4787ZM70.8774 21.2598C70.8774 21.9541 70.744 22.5805 70.4728 23.1466C70.2076 23.7072 69.8278 24.2038 69.3584 24.6033C68.8447 25.0309 68.2548 25.3538 67.6206 25.5542C66.9411 25.7806 66.1908 25.8938 65.3702 25.8938C63.7918 25.8938 62.0573 25.3806 60.1634 24.358L61.3701 21.8031C61.6618 21.983 61.9589 22.1529 62.2614 22.3126C62.6072 22.4937 62.9675 22.6598 63.3424 22.807C63.721 22.9579 64.1073 23.0787 64.5011 23.173C64.8949 23.2674 65.2773 23.3164 65.6446 23.3164C66.1313 23.3164 66.5359 23.173 66.8628 22.8862C67.0205 22.7554 67.1469 22.59 67.2328 22.4024C67.3181 22.2148 67.3608 22.0099 67.357 21.8031C67.357 21.3503 67.1971 21.0031 66.8741 20.7465C66.5586 20.4975 66.0573 20.3012 65.3702 20.1654L63.8588 19.8786C63.3894 19.779 62.9394 19.6031 62.5251 19.3578C62.1345 19.1471 61.7855 18.8643 61.4965 18.5238C61.2464 18.1991 61.0622 17.8271 60.9542 17.4295C60.8316 17.0068 60.7689 16.5683 60.7689 16.1275C60.7689 15.486 60.8802 14.8935 61.1179 14.3539C61.3464 13.8244 61.6894 13.3538 62.1205 12.9765C62.5829 12.5788 63.1182 12.2775 63.6951 12.0897C64.3077 11.8821 64.991 11.7765 65.7451 11.7765C66.785 11.7765 67.6649 11.9123 68.3855 12.1803C69.0548 12.4274 69.7106 12.7108 70.3502 13.0293L69.2434 15.369C68.7026 15.0646 68.1327 14.8168 67.5428 14.6294C67.0653 14.484 66.57 14.409 66.0719 14.4068C65.6511 14.3869 65.2352 14.5104 64.8911 14.7577C64.7452 14.8668 64.6275 15.0105 64.5486 15.1761C64.4697 15.3419 64.4319 15.5247 64.4379 15.7087C64.4379 16.0558 64.5605 16.3313 64.8019 16.5313C65.0472 16.7313 65.4594 16.9087 66.046 17.0634L67.6055 17.4785C68.0107 17.5842 68.345 17.6936 68.6124 17.8068C69.0473 17.9867 69.4481 18.2421 69.797 18.5615C70.1541 18.9078 70.4345 19.3269 70.6208 19.7913C70.8072 20.2556 70.8947 20.7548 70.8774 21.256V21.2598ZM80.5667 25.4787V16.803C80.5667 16.0407 80.4852 15.52 80.3253 15.2558C80.1659 14.9841 79.8688 14.852 79.434 14.852C79.1001 14.852 78.7209 14.9577 78.3012 15.1766C77.8615 15.4088 77.4553 15.7022 77.0944 16.0483V25.4787H73.7226V15.8143C73.7226 15.2407 73.6853 14.6898 73.6108 14.1615C73.5416 13.6612 73.4271 13.1686 73.2694 12.6897L76.2663 11.8029C76.5677 12.3066 76.7341 12.8816 76.7492 13.4709C76.9831 13.2919 77.2208 13.1182 77.4623 12.9501C77.6886 12.7916 77.9447 12.6369 78.231 12.4821C78.5815 12.2851 78.9581 12.1402 79.3486 12.052C79.7408 11.9586 80.1421 11.9105 80.5446 11.9086C81.2652 11.9086 81.9113 12.0859 82.4795 12.4406C83.0149 12.7538 83.4249 13.2479 83.6382 13.8369C83.8052 14.3048 83.8905 14.9388 83.8905 15.7351V25.4787H80.5705H80.5667ZM90.6309 19.905V20.0069C90.6309 21.0484 90.8654 21.8485 91.337 22.4032C91.8048 22.9579 92.4768 23.2372 93.3459 23.2372C94.4862 23.2372 95.5742 22.7956 96.614 21.9088L97.9251 23.9919C96.5789 25.1821 94.8557 25.8387 93.071 25.841C92.1462 25.841 91.311 25.675 90.5569 25.3504C89.8223 25.0344 89.1654 24.5577 88.6333 23.9542C88.0845 23.3204 87.6686 22.5794 87.4114 21.7767C87.1165 20.8611 86.9723 19.9023 86.9841 18.9389C86.9841 17.7427 87.1105 16.7276 87.3596 15.8936C87.6075 15.0653 88.0283 14.3009 88.5923 13.652C89.086 13.0765 89.6953 12.6146 90.3787 12.2972C91.0323 12.0029 91.7902 11.8557 92.6442 11.8557C93.3978 11.8557 94.1 11.9765 94.7574 12.2218C95.411 12.4633 95.9458 12.8105 96.365 13.2595C96.9733 13.9216 97.4173 14.7209 97.6615 15.5917C97.965 16.7338 98.1055 17.9146 98.0774 19.0974V19.905H90.6309ZM94.5792 17.1955C94.5792 16.6898 94.5494 16.2898 94.4938 15.9954C94.4376 15.7089 94.3307 15.4352 94.1778 15.1879C94.0206 14.9357 93.8002 14.7305 93.5388 14.5933C93.2779 14.4561 92.9856 14.3917 92.6923 14.4068C92.057 14.4068 91.5595 14.6558 91.2068 15.1502C90.8578 15.6445 90.6796 16.3615 90.6796 17.3011V17.3502H94.5792V17.1955ZM107.236 25.1919C106.37 25.5743 105.439 25.777 104.495 25.7882C103.641 25.7882 102.898 25.6108 102.267 25.2561C101.69 24.9599 101.246 24.4529 101.022 23.8372C100.975 23.7082 100.933 23.5772 100.896 23.4447C100.863 23.3177 100.843 23.1874 100.837 23.056C100.81 22.6314 100.797 22.206 100.799 21.7805V14.535H99.5148V12.1425H100.796C100.796 11.4821 100.799 10.9161 100.811 10.4481C100.82 9.96081 100.857 9.47443 100.922 8.9915L104.342 8.10468C104.273 8.7583 104.223 9.41398 104.194 10.0708C104.157 10.7764 104.142 11.467 104.142 12.1425H106.734V14.5388H104.142V21.2334C104.142 22.0824 104.238 22.6522 104.432 22.939C104.624 23.2258 105.014 23.3693 105.602 23.3693C105.767 23.3664 105.932 23.3436 106.092 23.3013C106.332 23.2403 106.571 23.1748 106.808 23.1051L107.236 25.1919Z" fill="#4B4B4B"/>
</g>
</svg>
