<svg width="166" height="45" viewBox="0 0 166 45" fill="none" xmlns="http://www.w3.org/2000/svg">
<g clip-path="url(#clip0_14_2427)">
<mask id="mask0_14_2427" style="mask-type:luminance" maskUnits="userSpaceOnUse" x="0" y="0" width="166" height="45">
<path d="M165.688 0.000366211H0.876953V44.6367H165.688V0.000366211Z" fill="white"/>
</mask>
<g mask="url(#mask0_14_2427)">
<path d="M91.7567 36.6201C91.3304 36.5878 90.9384 36.3612 90.6763 36.0051C90.3816 35.39 90.1853 34.7102 90.0548 34.0303L89.3017 30.4045C89.1701 29.5305 88.8102 28.6887 88.2213 27.9765C87.6651 27.2643 86.912 26.7463 86.0936 26.4549C84.9812 26.0018 83.7697 25.7428 82.5914 25.7104C84.2613 25.6457 85.8979 25.1924 87.3377 24.3507C88.3518 23.8003 89.2033 22.9587 89.7922 21.9227C90.2832 21.0487 90.5452 20.0451 90.5452 19.0416C90.6437 17.1963 89.6949 15.4481 88.0903 14.5093C85.8315 13.3439 83.2793 12.8259 80.759 12.9878H75.0959C72.6415 12.9878 70.9722 12.8259 69.7607 12.8259V13.5705C70.3502 13.5382 70.9064 13.6676 71.43 13.8619C71.8232 13.9266 72.1173 14.2503 72.1831 14.6065C72.3142 15.2539 72.3794 15.9014 72.3468 16.5812V33.8361C72.3794 34.4835 72.3468 35.1634 72.1831 35.8108C72.0195 36.1346 71.7574 36.3935 71.43 36.5554C70.9064 36.782 70.3176 36.8791 69.7607 36.8467V37.5914C71.5937 37.4294 73.4266 37.397 75.2596 37.4294C77.5509 37.4294 79.3839 37.5914 80.5948 37.5914V36.8467C80.0059 36.8791 79.4491 36.7496 78.9261 36.5554C78.5329 36.4907 78.2388 36.1668 78.173 35.8108C78.0425 35.1634 77.9761 34.5158 78.0093 33.8361V25.8723H80.5948C81.2174 25.8075 81.8389 26.0341 82.2646 26.4873C82.6898 26.973 83.0177 27.5233 83.1808 28.1384C83.3445 28.8829 83.6392 29.7894 83.8029 30.8578L84.4243 34.3216C84.5228 35.4547 85.0796 36.4907 85.9632 37.2028C86.912 37.8503 88.025 38.174 89.1701 38.1093C90.0548 38.1417 90.9384 37.9798 91.7567 37.656C92.5087 37.2999 93.1965 36.782 93.7533 36.1346L93.295 35.8431C93.295 35.8431 92.4108 36.6525 91.7567 36.6201ZM79.5143 25.2572H77.9761V16.6459C77.9441 16.0309 77.9761 15.4158 78.1404 14.8331C78.2056 14.477 78.4345 14.1208 78.7624 13.9266C79.1876 13.7324 79.646 13.6029 80.1364 13.6353C81.4463 13.5705 82.6898 14.1208 83.5082 15.1568C84.3265 16.4841 84.6864 18.0056 84.588 19.5272C84.6212 20.5631 84.4575 21.5667 84.1296 22.5379C83.8681 23.3472 83.3113 24.027 82.5914 24.5126C81.6746 25.0305 80.5948 25.2895 79.5143 25.2572Z" fill="#343434"/>
<path d="M139.021 16.0307C139.839 16.0307 140.657 15.7716 141.312 15.2861C141.41 15.189 141.509 15.0919 141.607 14.9947C142.555 13.8941 142.425 12.2754 141.312 11.3366C140.657 10.8509 139.839 10.592 139.021 10.592C138.202 10.5596 137.384 10.8186 136.73 11.3366C136.631 11.4337 136.533 11.5308 136.435 11.6279C135.486 12.7286 135.617 14.3473 136.73 15.2861C137.352 15.8364 138.17 16.0954 139.021 16.0307Z" fill="#343434"/>
<path d="M141.902 19.3652C140.2 19.6889 138.433 19.8507 136.698 19.8184C136.076 19.8184 135.323 19.6565 134.571 19.6565V20.4011C135.225 20.3687 135.847 20.6601 136.24 21.1456C136.6 21.8579 136.763 22.6348 136.698 23.4118V34.451C136.731 34.969 136.698 35.487 136.534 35.9725C136.371 36.2963 136.109 36.5553 135.781 36.717C135.323 36.8466 134.865 36.9114 134.406 36.879V37.6235C136.861 37.4617 138.531 37.4617 139.284 37.4617C140.037 37.4617 141.739 37.4617 144.03 37.6235V36.879C143.572 36.9114 143.113 36.879 142.655 36.717C142.328 36.5553 142.067 36.2963 141.902 35.9725C141.771 35.487 141.706 34.969 141.739 34.451L141.902 19.3652Z" fill="#343434"/>
<path d="M164.682 36.7494C164.354 36.5876 164.092 36.3286 163.929 36.0049C163.797 35.5192 163.732 35.0013 163.765 34.4833V25.0952C163.765 24.124 163.667 23.1527 163.471 22.2139C163.274 21.5988 162.947 21.0485 162.554 20.563C162.096 20.1421 161.605 19.7536 161.016 19.4946C160.263 19.3003 159.51 19.2033 158.725 19.2033C156.4 19.0091 154.208 20.1744 153.062 22.1168V19.3328C151.36 19.6565 149.593 19.8184 147.858 19.786C147.236 19.786 146.483 19.6241 145.731 19.6241V20.3687C146.385 20.3364 147.007 20.6276 147.399 21.1133C147.759 21.8254 147.923 22.6024 147.858 23.3794V34.4186C147.891 34.9366 147.858 35.4545 147.694 35.9401C147.53 36.2639 147.269 36.5228 146.941 36.6847C146.483 36.8142 146.025 36.8789 145.566 36.8465V37.5912C148.152 37.4293 149.691 37.4293 150.443 37.4293C151.196 37.4293 152.735 37.4293 154.862 37.5912V36.8465C154.502 36.8789 154.142 36.8465 153.782 36.6847C153.488 36.4905 153.291 36.2315 153.16 35.9401C153.029 35.4545 152.964 34.9366 152.997 34.4186V24.8038C152.997 24.0592 153.128 23.347 153.455 22.6995C153.75 22.1168 154.142 21.5988 154.666 21.178C155.222 20.8866 155.877 20.7247 156.498 20.7247C157.154 20.6925 157.775 20.9838 158.168 21.4694C158.528 22.1168 158.659 22.8614 158.627 23.5736V34.4509C158.659 34.9689 158.627 35.4869 158.463 35.9725C158.365 36.2962 158.135 36.5552 157.84 36.7171C157.677 36.8789 157.219 36.8789 156.76 36.8789V37.6235C159.052 37.4617 160.59 37.4617 161.343 37.4617C162.096 37.4617 163.634 37.4617 165.926 37.6235V36.8789C165.598 36.9437 165.14 36.9113 164.682 36.7494Z" fill="#343434"/>
<path d="M102.918 19.2033C100.594 19.0738 98.335 19.8832 96.6331 21.4694C95.0949 22.991 94.3418 25.3866 94.3418 28.7211C94.3418 32.0554 95.0949 34.4834 96.6331 35.9726C98.3024 37.5589 100.594 38.3682 102.918 38.2387C105.241 38.3682 107.5 37.5265 109.202 35.9726C110.74 34.451 111.493 32.0554 111.493 28.7211C111.493 25.3866 110.74 22.9586 109.202 21.4694C107.5 19.8832 105.241 19.0738 102.918 19.2033ZM105.373 35.2603C104.751 36.62 103.998 37.3646 102.918 37.3646C101.837 37.3646 101.084 36.7495 100.463 35.2603C99.7422 33.1237 99.4475 30.8576 99.5459 28.5916C99.4475 26.3254 99.7422 24.0917 100.463 21.9227C101.084 20.563 101.837 19.8184 102.918 19.8184C103.998 19.8184 104.751 20.563 105.373 21.9227C106.093 24.0593 106.419 26.3254 106.289 28.5916C106.387 30.8576 106.093 33.0914 105.373 35.2603Z" fill="#343434"/>
<path d="M129.235 20.2716C128.253 19.5594 127.075 19.2033 125.864 19.2033C124.718 19.171 123.606 19.4947 122.656 20.1098C121.773 20.5954 121.085 21.3399 120.66 22.214V10.5597C118.958 10.8834 117.19 11.0453 115.455 11.0129C114.833 11.0129 114.08 10.851 113.327 10.851V11.5957C113.982 11.5633 114.604 11.8546 114.997 12.3402C115.357 13.0524 115.521 13.8294 115.455 14.6063V36.0697C115.455 36.7495 115.324 37.397 115.161 38.0444L115.619 38.3357C116.11 37.9473 116.699 37.6236 117.288 37.4293C118.041 37.2674 118.794 37.1379 119.579 37.1379H120.201C121.347 37.9473 122.754 38.4005 124.161 38.3357C125.602 38.3681 127.042 38.012 128.286 37.2674C129.563 36.4581 130.577 35.2927 131.199 33.9331C131.985 32.1202 132.345 30.1454 132.279 28.1706C132.377 26.4873 132.115 24.7714 131.526 23.1851C131.068 22.0845 130.283 21.0486 129.235 20.2716ZM126.944 28.7534C126.944 34.6453 125.733 37.5265 123.115 37.5265C122.165 37.5265 121.249 37.2027 120.529 36.62V23.7355C120.66 22.8614 121.085 22.0522 121.739 21.4694C122.361 20.9838 123.115 20.7249 123.868 20.7249C124.947 20.7896 125.864 21.5018 126.158 22.5377C126.748 24.5448 127.009 26.6491 126.944 28.7534Z" fill="#343434"/>
<path d="M53.0355 6.86911C48.7804 6.772 44.82 11.0776 44.82 11.0776L19.9442 21.4046C19.9442 21.4046 27.4397 26.2282 35.7534 26.0016C44.0671 25.8074 52.3809 20.5953 52.3809 20.5953C51.0062 21.8255 49.5005 22.9262 47.9294 23.8974C45.311 25.516 41.4486 27.7173 36.5717 28.0088C32.7421 28.3001 28.9125 27.7173 25.3449 26.293C22.9227 25.4837 22.1044 25.8074 22.1044 25.8074C22.1044 25.8074 2.20386 35.2279 1.38558 35.6164C0.567294 36.0049 0.763681 37.5264 1.77835 37.0084C2.82575 36.5229 13.6598 32.023 15.6892 31.3108C17.7185 30.5985 20.7625 30.5014 26.0322 32.7028C29.9599 34.1596 34.0841 35.0661 38.2737 35.4222L40.2048 38.1415H42.0378C42.0378 38.1415 41.5469 37.5264 40.8267 36.7495C40.1066 35.9401 41.0232 34.9366 41.0232 34.9366C41.0232 34.9366 53.0682 31.4403 57.2251 27.2318C61.3821 23.0233 59.9743 17.9083 59.8438 15.7069C59.647 13.3113 63.9023 11.887 63.9023 11.887L59.9417 10.0741C58.1746 8.0993 55.6868 6.96622 53.0355 6.86911ZM56.6032 12.3725C55.7849 12.4049 55.0976 11.7575 55.0976 10.9805C55.0976 10.1388 55.7849 9.49132 56.6032 9.49132C57.4215 9.49132 58.1087 10.1712 58.1087 10.9805C58.0761 11.7898 57.4215 12.4049 56.6032 12.3725Z" fill="#343434"/>
</g>
</g>
<defs>
<clipPath id="clip0_14_2427">
<rect width="164.811" height="44.6363" fill="white" transform="translate(0.875977 0.000366211)"/>
</clipPath>
</defs>
</svg>
