<svg width="105" height="30" viewBox="0 0 105 30" fill="none" xmlns="http://www.w3.org/2000/svg">
<path d="M5.12023 18.3924C3.29142 16.5635 3.2438 13.6107 4.98691 11.7247L5.25361 11.458C6.93006 9.8959 9.53995 9.89589 11.2069 11.477L16.1409 16.4111C16.8077 17.0779 17.8936 17.0779 18.5603 16.4111C19.2176 15.7539 19.2271 14.6871 18.5794 14.0203L13.3405 8.78145C11.8451 7.28595 11.8451 4.85706 13.3405 3.36156L13.8549 2.84724C14.4264 2.2757 14.4264 1.34225 13.8549 0.770709C13.2929 0.208711 12.4071 0.199219 11.826 0.723085L11.7784 0.770709L8.67317 3.88548L2.71988 9.83872C-0.109099 12.6677 -0.109099 17.3065 2.71988 20.1355L7.67301 25.0886C8.2445 25.6601 9.178 25.6601 9.74949 25.0886C10.321 24.5171 10.321 23.5836 9.74949 23.0121L5.12023 18.3924Z" fill="#4B4B4B"/>
<path d="M22.8269 9.95296L21.0076 8.12415L17.8833 4.99989C17.3118 4.42834 16.3783 4.42834 15.8068 4.99989C15.2353 5.57138 15.2353 6.50488 15.8068 7.07637L20.417 11.6961C22.103 13.3725 22.2744 16.011 20.9314 17.8875C20.7789 18.097 20.617 18.3066 20.4265 18.4971C18.712 20.2116 15.9306 20.2116 14.2161 18.4971L9.51061 13.7916C8.84387 13.1249 7.75801 13.1249 7.09122 13.7916C6.43397 14.4489 6.42448 15.5157 7.07218 16.1825L12.1015 21.2118C13.6541 22.7644 13.6541 25.2885 12.1015 26.8412L11.6919 27.2507C11.1204 27.8223 11.1204 28.7557 11.6919 29.3273C12.2539 29.8892 13.1683 29.8988 13.7493 29.3463L13.7684 29.3273L16.8927 26.203L22.8459 20.2497C25.6559 17.4112 25.6559 12.7819 22.8269 9.95296Z" fill="#4B4B4B"/>
<path d="M36.6472 26.2411C35.3228 26.2411 34.3037 25.8696 33.5893 25.1172C32.875 24.3647 32.5131 23.336 32.5131 22.0119V13.7822C32.5131 13.6107 32.3799 13.4774 32.2083 13.4774H30.9606C30.7602 13.4774 30.5892 13.4107 30.4461 13.2869C30.3033 13.1535 30.2271 12.963 30.2271 12.7058V11.5056C30.2271 11.3532 30.3318 11.2294 30.4842 11.2103L32.4848 10.8865C32.6085 10.8674 32.7129 10.7722 32.7323 10.6483L33.4655 6.68589C33.5038 6.48584 33.5988 6.33348 33.742 6.22868C33.8846 6.12389 34.0656 6.06677 34.2848 6.06677H35.8851C36.0566 6.06677 36.1898 6.2001 36.1898 6.37156V10.5817C36.1898 10.7531 36.323 10.8865 36.4945 10.8865H39.9142C40.0857 10.8865 40.219 11.0199 40.219 11.1913V13.1725C40.219 13.344 40.0857 13.4774 39.9142 13.4774H36.4945C36.323 13.4774 36.1898 13.6107 36.1898 13.7822V21.7643C36.1898 22.2406 36.3136 22.6121 36.5517 22.8788C36.7898 23.1455 37.1045 23.2788 37.5042 23.2788C37.7329 23.2788 37.9232 23.2502 38.0759 23.1931C38.228 23.1359 38.3617 23.0787 38.4761 23.0216C38.5904 22.9645 38.6948 22.9073 38.7808 22.8502C38.8663 22.793 38.9618 22.7644 39.0472 22.7644C39.1521 22.7644 39.2476 22.793 39.3142 22.8502C39.3808 22.9073 39.4569 22.9835 39.5329 23.0883C39.5429 23.0978 39.5429 23.1073 39.5523 23.1169L40.5048 24.6599C40.5903 24.7933 40.5526 24.9648 40.4288 25.06C39.9425 25.422 39.3997 25.7077 38.7997 25.8982C38.1142 26.1269 37.3898 26.2411 36.6472 26.2411Z" fill="#4B4B4B"/>
<path d="M41.3441 10.877C41.3157 10.8007 41.3823 10.715 41.4584 10.715H44.2109C44.4874 10.715 44.7255 10.7817 44.9159 10.9055C45.1062 11.0389 45.2206 11.2008 45.2778 11.4008L47.4686 19.5639C47.5924 20.0116 47.6878 20.4498 47.7544 20.8784C47.7927 21.1165 47.8405 21.3642 47.8782 21.6023C47.8976 21.7262 48.0786 21.7357 48.1163 21.6119C48.1829 21.3642 48.2501 21.1165 48.3261 20.8784C48.4499 20.4498 48.5831 20.0116 48.7164 19.5639L51.2502 11.3722C51.3074 11.1722 51.4312 11.0103 51.6121 10.877C51.7931 10.7436 52.0029 10.6865 52.241 10.6865H53.8601C54.1271 10.6865 54.3558 10.7531 54.5267 10.877C54.7077 11.0103 54.822 11.1722 54.8892 11.3722L57.3942 19.7163C57.5274 20.145 57.6417 20.5545 57.7466 20.9641C57.8038 21.1832 57.861 21.4023 57.9081 21.6119C57.937 21.7357 58.118 21.7357 58.1463 21.6023C58.1846 21.3642 58.2323 21.1261 58.28 20.8879C58.3655 20.4593 58.4704 20.0211 58.6036 19.5639L60.8705 11.4008C60.9182 11.2008 61.042 11.0389 61.233 10.9055C61.4233 10.7722 61.642 10.715 61.8901 10.715H64.4901C64.5761 10.715 64.6333 10.7912 64.6044 10.877L59.842 25.9173C59.8231 25.9649 59.7754 26.003 59.7276 26.003H56.8513C56.5366 26.003 56.3079 25.7839 56.1653 25.3457L53.4127 16.5159C53.3267 16.2301 53.2412 15.9348 53.1646 15.6491C53.1363 15.5538 53.1174 15.449 53.0886 15.3538C53.0603 15.23 52.8793 15.23 52.8504 15.3538C52.8316 15.4586 52.8027 15.5633 52.7744 15.6681C52.7078 15.9634 52.6218 16.2587 52.5363 16.5539L49.7549 25.3553C49.6117 25.7934 49.3452 26.0125 48.9545 26.0125H46.2302C46.1731 26.0125 46.1353 25.9744 46.1165 25.9268L41.3441 10.877Z" fill="#4B4B4B"/>
<path d="M71.1975 6.26668C71.1975 6.58101 71.1303 6.88585 71.0066 7.1621C70.8733 7.4383 70.7018 7.68597 70.4926 7.8955C70.2828 8.10509 70.0258 8.267 69.7399 8.39084C69.454 8.51467 69.1399 8.58133 68.8157 8.58133C68.5016 8.58133 68.1968 8.52416 67.911 8.39084C67.6251 8.267 67.3776 8.10509 67.1777 7.8955C66.9679 7.68597 66.8064 7.44785 66.6821 7.1621C66.5583 6.88585 66.4917 6.59056 66.4917 6.26668C66.4917 5.94286 66.5583 5.62853 66.6821 5.34278C66.8064 5.05698 66.9679 4.80937 67.1777 4.59978C67.387 4.39024 67.6351 4.22833 67.911 4.1045C68.1968 3.98066 68.4921 3.914 68.8157 3.914C69.1399 3.914 69.454 3.98066 69.7399 4.1045C70.0258 4.22833 70.2828 4.39024 70.4926 4.59978C70.7018 4.80937 70.8733 5.05698 71.0066 5.34278C71.1303 5.62853 71.1975 5.93331 71.1975 6.26668ZM70.6447 10.9912V25.7267C70.6447 25.8791 70.5209 26.0029 70.3688 26.0029H67.2444C67.0917 26.0029 66.9679 25.8791 66.9679 25.7267V10.9912C66.9679 10.8388 67.0917 10.715 67.2444 10.715H70.3688C70.5209 10.7245 70.6447 10.8388 70.6447 10.9912Z" fill="#4B4B4B"/>
<path d="M74.7974 25.8222V10.8962C74.7974 10.8009 74.874 10.7152 74.9783 10.7152H77.0454C77.5216 10.7152 77.8263 10.9343 77.979 11.3724C77.979 11.3819 77.9884 11.3915 77.9884 11.401L78.1694 12.2773C78.1982 12.4107 78.3697 12.4678 78.4646 12.3726C78.7028 12.144 78.9503 11.9344 79.2079 11.7343C79.5509 11.4772 79.9128 11.2486 80.2936 11.0676C80.6743 10.8771 81.084 10.7342 81.5225 10.639C81.9604 10.5437 82.4367 10.4866 82.9512 10.4866C83.7893 10.4866 84.5226 10.6294 85.1703 10.9152C85.8181 11.201 86.3515 11.5915 86.79 12.1058C87.2185 12.6202 87.5515 13.2298 87.7708 13.9347C87.99 14.6491 88.1044 15.4302 88.1044 16.2779V25.8317C88.1044 25.927 88.0283 26.0127 87.9234 26.0127H84.5992C84.5037 26.0127 84.4182 25.9364 84.4182 25.8317V16.2779C84.4182 15.3445 84.199 14.6205 83.7705 14.1062C83.3414 13.5918 82.6942 13.3346 81.8272 13.3346C81.1889 13.3346 80.5983 13.4775 80.0366 13.7633C79.5032 14.0395 78.9886 14.411 78.5124 14.8872C78.4741 14.9253 78.4552 14.9634 78.4552 15.011V25.8126C78.4552 25.9079 78.3792 25.9936 78.2743 25.9936H74.95C74.8834 26.0032 74.7974 25.927 74.7974 25.8222Z" fill="#4B4B4B"/>
<path d="M97.7706 10.4769C98.7325 10.4769 99.6184 10.6293 100.428 10.9341C101.238 11.2389 101.933 11.6962 102.524 12.2867C103.114 12.8773 103.562 13.6012 103.895 14.4585C104.219 15.3157 104.391 16.2968 104.391 17.4017C104.391 17.678 104.381 17.9066 104.352 18.0971C104.324 18.2781 104.286 18.4209 104.219 18.5257C104.153 18.6305 104.067 18.7067 103.962 18.7448C103.857 18.7924 103.714 18.8115 103.543 18.8115H94.4175C94.246 18.8115 94.1033 18.9639 94.1222 19.1354C94.2654 20.5356 94.675 21.5833 95.3605 22.2691C96.0943 23.0026 97.0657 23.3741 98.2851 23.3741C98.8852 23.3741 99.3991 23.3074 99.8282 23.1645C100.257 23.0216 100.637 22.8692 100.962 22.7073C101.285 22.5358 101.571 22.3834 101.809 22.2501C102.057 22.1072 102.285 22.0405 102.514 22.0405C102.667 22.0405 102.791 22.0691 102.905 22.1262C103.009 22.1834 103.105 22.2691 103.19 22.3834L104.105 23.5264C104.2 23.6408 104.19 23.8027 104.086 23.917C103.724 24.3075 103.324 24.6504 102.885 24.9266C102.381 25.2505 101.848 25.5077 101.295 25.6982C100.742 25.8887 100.181 26.0316 99.609 26.1078C99.0372 26.184 98.485 26.2316 97.9515 26.2316C96.8847 26.2316 95.9034 26.0506 94.9892 25.6982C94.075 25.3458 93.284 24.8219 92.608 24.1361C91.9314 23.4502 91.398 22.593 91.0172 21.5738C90.6264 20.5546 90.436 19.3735 90.436 18.04C90.436 17.0017 90.6076 16.0206 90.9411 15.0966C91.2742 14.1822 91.7604 13.3821 92.3887 12.6963C93.0176 12.02 93.7891 11.4771 94.6939 11.077C95.5986 10.677 96.6277 10.4769 97.7706 10.4769ZM97.8466 13.1154C96.7704 13.1154 95.9322 13.4202 95.3322 14.0203C94.7894 14.5632 94.4275 15.3062 94.2365 16.2492C94.1988 16.4302 94.3414 16.6016 94.5224 16.6016H100.781C100.952 16.6016 101.085 16.4588 101.076 16.2873C101.057 15.9253 100.99 15.5824 100.895 15.2491C100.761 14.8299 100.571 14.4585 100.295 14.1346C100.028 13.8203 99.685 13.5631 99.2848 13.3821C98.8657 13.2107 98.3895 13.1154 97.8466 13.1154Z" fill="#4B4B4B"/>
</svg>
